<svg id="svg" xmlns="http://www.w3.org/2000/svg" xmlns:xlink="http://www.w3.org/1999/xlink" width="400" height="400" viewBox="0, 0, 400,400" version="1.1"><g id="svgg"><path id="path0" d="M179.003 0.274 C 177.025 0.362,175.234 0.606,175.023 0.817 C 174.812 1.028,173.416 1.200,171.920 1.200 C 170.373 1.200,169.200 1.373,169.200 1.600 C 169.200 1.822,168.133 2.000,166.800 2.000 C 165.467 2.000,164.400 2.178,164.400 2.400 C 164.400 2.623,163.325 2.800,161.976 2.800 C 160.463 2.800,159.646 2.950,159.800 3.200 C 159.949 3.442,159.404 3.600,158.424 3.600 C 157.531 3.600,156.800 3.780,156.800 4.000 C 156.800 4.220,155.900 4.400,154.800 4.400 C 153.700 4.400,152.800 4.580,152.800 4.800 C 152.800 5.020,152.080 5.200,151.200 5.200 C 150.320 5.200,149.600 5.380,149.600 5.600 C 149.600 5.820,149.161 6.000,148.624 6.000 C 148.087 6.000,147.536 6.180,147.400 6.400 C 147.264 6.620,146.433 6.800,145.553 6.800 C 144.588 6.800,144.051 6.959,144.200 7.200 C 144.349 7.442,143.804 7.600,142.824 7.600 C 141.931 7.600,141.200 7.780,141.200 8.000 C 141.200 8.220,140.660 8.400,140.000 8.400 C 139.340 8.400,138.800 8.567,138.800 8.771 C 138.800 8.975,137.796 9.268,136.568 9.421 C 135.341 9.575,134.250 9.926,134.144 10.203 C 133.988 10.609,131.034 11.395,130.445 11.187 C 130.359 11.156,130.169 11.326,130.022 11.564 C 129.875 11.802,129.283 12.035,128.706 12.083 C 128.129 12.131,127.689 12.357,127.728 12.585 C 127.768 12.813,127.477 13.002,127.083 13.003 C 126.689 13.005,126.212 13.257,126.024 13.562 C 125.835 13.867,125.398 14.008,125.053 13.876 C 124.708 13.743,124.319 13.807,124.189 14.017 C 124.059 14.228,123.632 14.400,123.241 14.400 C 122.849 14.400,120.761 15.300,118.600 16.400 C 116.439 17.500,114.351 18.400,113.959 18.400 C 113.568 18.400,113.136 18.580,113.000 18.800 C 112.864 19.020,112.393 19.200,111.953 19.200 C 111.513 19.200,111.264 19.380,111.400 19.600 C 111.536 19.820,111.402 20.000,111.103 20.000 C 110.349 20.000,108.407 20.935,108.403 21.300 C 108.401 21.465,108.080 21.600,107.688 21.600 C 107.297 21.600,106.717 21.960,106.400 22.400 C 106.083 22.840,105.503 23.200,105.112 23.200 C 104.720 23.200,104.400 23.380,104.400 23.600 C 104.400 23.820,104.055 24.000,103.633 24.000 C 103.212 24.000,102.807 24.135,102.733 24.300 C 102.589 24.626,98.377 26.800,97.891 26.800 C 97.727 26.800,97.065 27.270,96.420 27.845 C 95.129 28.995,93.368 30.000,92.643 30.000 C 92.386 30.000,91.917 30.360,91.600 30.800 C 91.283 31.240,90.746 31.600,90.408 31.600 C 90.069 31.600,89.568 31.960,89.293 32.400 C 89.018 32.840,88.512 33.200,88.168 33.200 C 87.426 33.200,86.332 34.198,86.686 34.552 C 86.914 34.781,85.837 34.971,85.070 34.837 C 84.889 34.806,84.855 34.965,84.994 35.190 C 85.133 35.416,85.006 35.600,84.712 35.600 C 84.417 35.600,83.917 35.960,83.600 36.400 C 83.283 36.840,82.821 37.200,82.574 37.200 C 82.326 37.200,81.798 37.560,81.400 38.000 C 81.002 38.440,80.459 38.800,80.194 38.800 C 79.930 38.800,79.102 39.525,78.356 40.412 C 77.499 41.431,76.750 41.962,76.322 41.855 C 75.889 41.747,75.315 42.166,74.735 43.013 C 74.235 43.743,73.685 44.253,73.513 44.146 C 73.341 44.040,73.200 44.143,73.200 44.376 C 73.200 44.609,72.997 44.800,72.748 44.800 C 72.500 44.800,71.600 45.430,70.747 46.200 C 69.895 46.970,69.297 47.600,69.419 47.600 C 69.541 47.600,69.156 48.050,68.562 48.600 C 67.969 49.150,67.306 49.600,67.090 49.600 C 66.873 49.600,65.736 50.567,64.564 51.749 C 63.391 52.931,62.351 53.818,62.252 53.719 C 62.154 53.620,61.954 53.913,61.810 54.370 C 61.665 54.826,61.365 55.200,61.144 55.200 C 60.924 55.200,60.473 55.470,60.143 55.800 C 59.813 56.130,59.633 56.400,59.743 56.400 C 59.854 56.400,59.191 57.171,58.272 58.114 C 57.352 59.057,56.534 59.785,56.452 59.733 C 56.208 59.576,55.200 60.712,55.200 61.144 C 55.200 61.365,54.826 61.665,54.370 61.810 C 53.913 61.954,53.620 62.154,53.719 62.252 C 53.818 62.351,52.931 63.391,51.749 64.564 C 50.567 65.736,49.600 66.873,49.600 67.090 C 49.600 67.306,49.150 67.969,48.600 68.562 C 48.050 69.156,47.600 69.541,47.600 69.419 C 47.600 69.297,46.970 69.895,46.200 70.747 C 45.430 71.600,44.800 72.500,44.800 72.748 C 44.800 72.997,44.609 73.200,44.376 73.200 C 44.143 73.200,44.040 73.341,44.146 73.513 C 44.253 73.685,43.743 74.235,43.013 74.735 C 42.166 75.315,41.747 75.889,41.855 76.322 C 41.962 76.750,41.431 77.499,40.412 78.356 C 39.525 79.102,38.800 79.930,38.800 80.194 C 38.800 80.459,38.440 81.002,38.000 81.400 C 37.560 81.798,37.200 82.326,37.200 82.574 C 37.200 82.821,36.840 83.283,36.400 83.600 C 35.960 83.917,35.600 84.417,35.600 84.712 C 35.600 85.006,35.416 85.133,35.190 84.994 C 34.965 84.855,34.806 84.889,34.837 85.070 C 34.971 85.837,34.781 86.914,34.552 86.686 C 34.198 86.332,33.200 87.426,33.200 88.168 C 33.200 88.512,32.840 89.018,32.400 89.293 C 31.960 89.568,31.600 90.069,31.600 90.408 C 31.600 90.746,31.240 91.283,30.800 91.600 C 30.360 91.917,30.000 92.386,30.000 92.643 C 30.000 93.368,28.995 95.129,27.845 96.420 C 27.270 97.065,26.800 97.727,26.800 97.891 C 26.800 98.377,24.626 102.589,24.300 102.733 C 24.135 102.807,24.000 103.212,24.000 103.633 C 24.000 104.055,23.820 104.400,23.600 104.400 C 23.380 104.400,23.200 104.720,23.200 105.112 C 23.200 105.503,22.840 106.083,22.400 106.400 C 21.960 106.717,21.600 107.297,21.600 107.688 C 21.600 108.080,21.465 108.401,21.300 108.403 C 20.935 108.407,20.000 110.349,20.000 111.103 C 20.000 111.402,19.820 111.536,19.600 111.400 C 19.380 111.264,19.200 111.513,19.200 111.953 C 19.200 112.393,19.020 112.864,18.800 113.000 C 18.580 113.136,18.400 113.568,18.400 113.959 C 18.400 114.351,17.500 116.439,16.400 118.600 C 15.300 120.761,14.400 122.849,14.400 123.241 C 14.400 123.632,14.228 124.059,14.017 124.189 C 13.807 124.319,13.743 124.708,13.876 125.053 C 14.008 125.398,13.867 125.835,13.562 126.024 C 13.257 126.212,13.005 126.689,13.003 127.083 C 13.002 127.477,12.813 127.768,12.585 127.728 C 12.357 127.689,12.131 128.129,12.083 128.706 C 12.035 129.283,11.802 129.875,11.564 130.022 C 11.326 130.169,11.156 130.359,11.187 130.445 C 11.395 131.034,10.609 133.988,10.203 134.144 C 9.926 134.250,9.575 135.341,9.421 136.568 C 9.268 137.796,8.975 138.800,8.771 138.800 C 8.567 138.800,8.400 139.340,8.400 140.000 C 8.400 140.660,8.220 141.200,8.000 141.200 C 7.780 141.200,7.600 141.931,7.600 142.824 C 7.600 143.804,7.442 144.349,7.200 144.200 C 6.959 144.051,6.800 144.588,6.800 145.553 C 6.800 146.433,6.620 147.264,6.400 147.400 C 6.180 147.536,6.000 148.087,6.000 148.624 C 6.000 149.161,5.820 149.600,5.600 149.600 C 5.380 149.600,5.200 150.320,5.200 151.200 C 5.200 152.080,5.020 152.800,4.800 152.800 C 4.580 152.800,4.400 153.700,4.400 154.800 C 4.400 155.900,4.220 156.800,4.000 156.800 C 3.780 156.800,3.600 157.531,3.600 158.424 C 3.600 159.404,3.442 159.949,3.200 159.800 C 2.950 159.646,2.800 160.463,2.800 161.976 C 2.800 163.325,2.623 164.400,2.400 164.400 C 2.178 164.400,2.000 165.467,2.000 166.800 C 2.000 168.133,1.822 169.200,1.600 169.200 C 1.373 169.200,1.200 170.373,1.200 171.920 C 1.200 173.563,1.002 174.838,0.700 175.140 C -0.029 175.869,-0.029 224.131,0.700 224.860 C 1.002 225.162,1.200 226.437,1.200 228.080 C 1.200 229.627,1.373 230.800,1.600 230.800 C 1.820 230.800,2.000 231.779,2.000 232.976 C 2.000 234.173,2.180 235.264,2.400 235.400 C 2.620 235.536,2.800 236.727,2.800 238.047 C 2.800 239.545,2.950 240.354,3.200 240.200 C 3.442 240.051,3.600 240.596,3.600 241.576 C 3.600 242.469,3.780 243.200,4.000 243.200 C 4.220 243.200,4.400 244.100,4.400 245.200 C 4.400 246.300,4.580 247.200,4.800 247.200 C 5.020 247.200,5.200 247.920,5.200 248.800 C 5.200 249.680,5.380 250.400,5.600 250.400 C 5.820 250.400,6.000 250.850,6.000 251.400 C 6.000 251.950,6.180 252.400,6.400 252.400 C 6.620 252.400,6.800 253.221,6.800 254.224 C 6.800 255.337,6.956 255.951,7.200 255.800 C 7.442 255.651,7.600 256.196,7.600 257.176 C 7.600 258.069,7.780 258.800,8.000 258.800 C 8.220 258.800,8.400 259.340,8.400 260.000 C 8.400 260.660,8.559 261.200,8.754 261.200 C 8.949 261.200,9.233 262.201,9.386 263.425 C 9.540 264.658,9.896 265.739,10.185 265.849 C 10.636 266.023,11.425 268.850,11.259 269.700 C 11.226 269.865,11.380 270.000,11.600 270.000 C 11.820 270.000,12.000 270.338,12.000 270.751 C 12.000 271.164,12.278 271.733,12.618 272.015 C 12.958 272.297,13.141 272.776,13.025 273.079 C 12.909 273.382,13.094 273.738,13.436 273.869 C 13.863 274.033,13.985 274.406,13.822 275.054 C 13.689 275.585,13.764 276.000,13.992 276.000 C 14.217 276.000,14.400 276.335,14.400 276.745 C 14.400 277.154,15.120 278.889,16.000 280.600 C 16.880 282.311,17.600 283.956,17.600 284.255 C 17.600 284.555,17.780 284.800,18.000 284.800 C 18.220 284.800,18.400 285.135,18.400 285.544 C 18.400 286.346,20.805 291.313,21.300 291.533 C 21.465 291.607,21.600 291.972,21.600 292.345 C 21.600 292.718,21.960 293.283,22.400 293.600 C 22.840 293.917,23.200 294.497,23.200 294.888 C 23.200 295.280,23.380 295.600,23.600 295.600 C 23.820 295.600,24.000 295.960,24.000 296.400 C 24.000 296.840,24.180 297.200,24.400 297.200 C 24.620 297.200,24.800 297.560,24.800 298.000 C 24.800 298.440,24.980 298.800,25.200 298.800 C 25.420 298.800,25.600 299.138,25.600 299.551 C 25.600 299.964,25.870 300.526,26.200 300.800 C 26.530 301.074,26.800 301.547,26.800 301.852 C 26.800 302.157,27.270 302.935,27.845 303.580 C 28.995 304.871,30.000 306.632,30.000 307.357 C 30.000 307.614,30.360 308.083,30.800 308.400 C 31.240 308.717,31.600 309.185,31.600 309.439 C 31.600 309.694,31.873 310.129,32.207 310.406 C 32.541 310.683,33.102 311.515,33.453 312.255 C 33.804 312.995,34.251 313.600,34.446 313.600 C 34.641 313.600,34.800 313.882,34.800 314.226 C 34.800 314.570,35.340 315.306,36.000 315.861 C 36.660 316.417,37.200 317.097,37.200 317.374 C 37.200 317.650,37.560 318.202,38.000 318.600 C 38.440 318.998,38.800 319.579,38.800 319.891 C 38.800 320.588,39.813 321.654,40.152 321.314 C 40.289 321.178,40.400 321.323,40.400 321.637 C 40.400 321.951,40.775 322.442,41.233 322.728 C 41.692 323.014,41.973 323.492,41.859 323.790 C 41.739 324.104,42.216 324.719,42.995 325.253 C 43.735 325.760,44.253 326.315,44.146 326.487 C 44.040 326.659,44.143 326.800,44.376 326.800 C 44.609 326.800,44.803 327.025,44.808 327.300 C 44.812 327.575,46.072 329.135,47.608 330.766 C 49.143 332.397,50.400 333.895,50.400 334.095 C 50.400 334.637,51.467 335.599,51.752 335.314 C 51.889 335.178,52.000 335.269,52.000 335.516 C 52.000 335.764,52.990 336.933,54.200 338.114 C 55.410 339.295,56.400 340.217,56.400 340.162 C 56.400 340.108,57.158 340.814,58.085 341.731 C 59.012 342.649,59.726 343.451,59.671 343.514 C 59.486 343.726,60.739 344.800,61.171 344.800 C 61.407 344.800,61.600 344.957,61.600 345.148 C 61.600 345.725,66.446 350.400,67.044 350.400 C 67.350 350.400,67.600 350.591,67.600 350.824 C 67.600 351.057,67.780 351.136,68.000 351.000 C 68.220 350.864,68.400 350.963,68.400 351.220 C 68.400 351.956,72.081 355.144,72.670 354.918 C 72.979 354.799,73.200 354.992,73.200 355.381 C 73.200 355.747,73.342 355.959,73.516 355.852 C 73.690 355.745,74.185 356.184,74.616 356.829 C 75.047 357.473,75.940 358.180,76.600 358.400 C 77.260 358.620,78.160 359.339,78.600 359.999 C 79.040 360.658,79.715 361.198,80.100 361.199 C 80.485 361.199,80.800 361.359,80.800 361.554 C 80.800 361.749,81.420 362.203,82.177 362.562 C 82.935 362.922,83.906 363.662,84.335 364.208 C 84.764 364.754,85.364 365.200,85.669 365.200 C 85.974 365.200,86.483 365.560,86.800 366.000 C 87.117 366.440,87.695 366.800,88.085 366.800 C 88.474 366.800,89.018 367.160,89.293 367.600 C 89.568 368.040,90.069 368.400,90.408 368.400 C 90.746 368.400,91.271 368.744,91.574 369.164 C 91.876 369.584,92.365 369.835,92.659 369.722 C 92.953 369.609,93.304 369.806,93.439 370.158 C 93.575 370.511,93.981 370.801,94.343 370.802 C 94.704 370.803,95.623 371.388,96.385 372.102 C 97.147 372.816,97.777 373.329,97.785 373.241 C 97.817 372.903,99.600 373.675,99.600 374.027 C 99.600 374.232,99.834 374.400,100.120 374.400 C 100.856 374.400,102.793 375.341,102.797 375.700 C 102.799 375.865,103.160 376.000,103.600 376.000 C 104.040 376.000,104.400 376.180,104.400 376.400 C 104.400 376.620,104.720 376.800,105.112 376.800 C 105.503 376.800,106.083 377.160,106.400 377.600 C 106.717 378.040,107.297 378.400,107.688 378.400 C 108.080 378.400,108.400 378.551,108.400 378.736 C 108.400 378.921,109.114 379.308,109.987 379.596 C 110.859 379.884,111.479 380.272,111.363 380.460 C 111.247 380.647,111.613 380.800,112.176 380.800 C 112.739 380.800,113.200 380.980,113.200 381.200 C 113.200 381.420,113.650 381.600,114.200 381.600 C 114.750 381.600,115.200 381.780,115.200 382.000 C 115.200 382.220,115.445 382.400,115.745 382.400 C 116.044 382.400,117.689 383.120,119.400 384.000 C 121.111 384.880,122.846 385.600,123.255 385.600 C 123.665 385.600,124.000 385.780,124.000 386.000 C 124.000 386.220,124.439 386.400,124.976 386.400 C 125.513 386.400,126.064 386.580,126.200 386.800 C 126.336 387.020,126.807 387.200,127.247 387.200 C 127.687 387.200,127.960 387.342,127.852 387.515 C 127.745 387.688,128.130 387.869,128.706 387.917 C 129.283 387.965,129.855 388.138,129.978 388.302 C 130.242 388.656,130.945 388.865,132.686 389.106 C 133.393 389.204,134.180 389.535,134.435 389.842 C 134.690 390.149,135.326 390.400,135.849 390.400 C 136.372 390.400,136.800 390.555,136.800 390.745 C 136.800 390.934,137.250 391.003,137.800 390.898 C 138.384 390.786,138.800 390.893,138.800 391.153 C 138.800 391.399,139.340 391.600,140.000 391.600 C 140.660 391.600,141.200 391.780,141.200 392.000 C 141.200 392.220,141.931 392.400,142.824 392.400 C 143.804 392.400,144.349 392.558,144.200 392.800 C 144.049 393.044,144.663 393.200,145.776 393.200 C 146.779 393.200,147.600 393.380,147.600 393.600 C 147.600 393.820,148.050 394.000,148.600 394.000 C 149.150 394.000,149.600 394.180,149.600 394.400 C 149.600 394.620,150.320 394.800,151.200 394.800 C 152.080 394.800,152.800 394.980,152.800 395.200 C 152.800 395.420,153.700 395.600,154.800 395.600 C 155.900 395.600,156.800 395.780,156.800 396.000 C 156.800 396.220,157.531 396.400,158.424 396.400 C 159.404 396.400,159.949 396.558,159.800 396.800 C 159.646 397.050,160.455 397.200,161.953 397.200 C 163.273 397.200,164.464 397.380,164.600 397.600 C 164.736 397.820,165.827 398.000,167.024 398.000 C 168.221 398.000,169.200 398.180,169.200 398.400 C 169.200 398.627,170.373 398.800,171.920 398.800 C 173.563 398.800,174.838 398.998,175.140 399.300 C 175.869 400.029,224.131 400.029,224.860 399.300 C 225.162 398.998,226.437 398.800,228.080 398.800 C 229.627 398.800,230.800 398.627,230.800 398.400 C 230.800 398.180,231.779 398.000,232.976 398.000 C 234.173 398.000,235.264 397.820,235.400 397.600 C 235.536 397.380,236.727 397.200,238.047 397.200 C 239.545 397.200,240.354 397.050,240.200 396.800 C 240.051 396.558,240.596 396.400,241.576 396.400 C 242.469 396.400,243.200 396.220,243.200 396.000 C 243.200 395.780,244.100 395.600,245.200 395.600 C 246.300 395.600,247.200 395.420,247.200 395.200 C 247.200 394.980,247.920 394.800,248.800 394.800 C 249.680 394.800,250.400 394.620,250.400 394.400 C 250.400 394.180,250.839 394.000,251.376 394.000 C 251.913 394.000,252.464 393.820,252.600 393.600 C 252.736 393.380,253.557 393.200,254.424 393.200 C 255.291 393.200,256.000 393.020,256.000 392.800 C 256.000 392.580,256.630 392.400,257.400 392.400 C 258.170 392.400,258.800 392.220,258.800 392.000 C 258.800 391.780,259.340 391.600,260.000 391.600 C 260.660 391.600,261.200 391.441,261.200 391.246 C 261.200 391.051,262.188 390.769,263.396 390.618 C 264.604 390.467,265.729 390.110,265.896 389.826 C 266.063 389.541,266.740 389.220,267.400 389.114 C 269.147 388.831,269.772 388.637,270.022 388.302 C 270.145 388.138,270.717 387.965,271.294 387.917 C 271.870 387.869,272.263 387.701,272.165 387.544 C 272.068 387.386,272.396 387.195,272.894 387.119 C 273.392 387.043,273.767 386.796,273.726 386.569 C 273.686 386.343,274.181 386.194,274.826 386.239 C 275.472 386.284,276.000 386.158,276.000 385.960 C 276.000 385.762,276.331 385.600,276.736 385.600 C 277.141 385.600,279.239 384.700,281.400 383.600 C 283.561 382.500,285.749 381.600,286.264 381.600 C 286.779 381.600,287.201 381.465,287.201 381.300 C 287.202 381.135,288.192 380.550,289.400 380.000 C 290.608 379.450,291.598 378.865,291.599 378.700 C 291.599 378.535,291.920 378.400,292.312 378.400 C 292.703 378.400,293.283 378.040,293.600 377.600 C 293.917 377.160,294.497 376.800,294.888 376.800 C 295.280 376.800,295.601 376.665,295.603 376.500 C 295.607 376.141,297.544 375.200,298.280 375.200 C 298.566 375.200,298.800 375.001,298.800 374.757 C 298.800 374.514,299.070 374.418,299.400 374.545 C 299.730 374.671,300.000 374.605,300.000 374.398 C 300.000 374.190,300.540 373.741,301.200 373.400 C 301.860 373.059,302.400 372.883,302.400 373.010 C 302.400 373.137,302.985 372.692,303.700 372.022 C 304.415 371.352,305.296 370.803,305.657 370.802 C 306.019 370.801,306.425 370.511,306.561 370.158 C 306.696 369.806,307.043 369.608,307.332 369.719 C 307.621 369.829,308.071 369.578,308.332 369.160 C 308.593 368.742,309.122 368.400,309.507 368.400 C 309.892 368.400,310.432 368.040,310.707 367.600 C 310.982 367.160,311.526 366.800,311.915 366.800 C 312.305 366.800,312.883 366.440,313.200 366.000 C 313.517 365.560,313.980 365.200,314.229 365.200 C 314.478 365.200,315.246 364.660,315.937 364.000 C 316.628 363.340,317.352 362.800,317.547 362.800 C 317.742 362.800,318.129 362.527,318.406 362.193 C 318.683 361.859,319.509 361.301,320.240 360.954 C 320.972 360.607,321.675 359.995,321.802 359.595 C 321.929 359.194,322.530 358.694,323.137 358.482 C 324.327 358.067,326.800 355.802,326.800 355.126 C 326.800 354.900,327.065 354.816,327.389 354.941 C 327.715 355.065,328.158 354.860,328.377 354.483 C 328.596 354.108,328.781 353.954,328.788 354.142 C 328.795 354.331,329.655 353.573,330.700 352.460 C 331.745 351.346,332.844 350.382,333.141 350.317 C 333.777 350.180,338.400 345.621,338.400 345.133 C 338.400 344.950,338.593 344.800,338.829 344.800 C 339.064 344.800,339.527 344.530,339.857 344.200 C 340.187 343.870,340.367 343.600,340.257 343.600 C 340.146 343.600,340.809 342.829,341.728 341.886 C 342.648 340.943,343.466 340.215,343.548 340.267 C 343.800 340.429,344.800 339.280,344.800 338.829 C 344.800 338.593,344.950 338.400,345.133 338.400 C 345.621 338.400,350.180 333.777,350.317 333.141 C 350.382 332.844,351.346 331.745,352.460 330.700 C 353.573 329.655,354.331 328.795,354.142 328.788 C 353.954 328.781,354.108 328.596,354.483 328.377 C 354.860 328.158,355.065 327.715,354.941 327.389 C 354.816 327.065,354.900 326.800,355.126 326.800 C 355.802 326.800,358.067 324.327,358.482 323.137 C 358.694 322.530,359.194 321.929,359.595 321.802 C 359.995 321.675,360.607 320.972,360.954 320.240 C 361.301 319.509,361.859 318.683,362.193 318.406 C 362.527 318.129,362.800 317.742,362.800 317.547 C 362.800 317.352,363.340 316.628,364.000 315.937 C 364.660 315.246,365.200 314.478,365.200 314.229 C 365.200 313.980,365.560 313.517,366.000 313.200 C 366.440 312.883,366.800 312.305,366.800 311.915 C 366.800 311.526,367.160 310.982,367.600 310.707 C 368.040 310.432,368.400 309.892,368.400 309.507 C 368.400 309.122,368.742 308.593,369.160 308.332 C 369.578 308.071,369.829 307.621,369.719 307.332 C 369.608 307.043,369.806 306.696,370.158 306.561 C 370.511 306.425,370.801 306.019,370.802 305.657 C 370.803 305.296,371.352 304.415,372.022 303.700 C 372.692 302.985,373.137 302.400,373.010 302.400 C 372.883 302.400,373.059 301.860,373.400 301.200 C 373.741 300.540,374.190 300.000,374.398 300.000 C 374.605 300.000,374.671 299.730,374.545 299.400 C 374.418 299.070,374.514 298.800,374.757 298.800 C 375.001 298.800,375.200 298.566,375.200 298.280 C 375.200 297.544,376.141 295.607,376.500 295.603 C 376.665 295.601,376.800 295.280,376.800 294.888 C 376.800 294.497,377.160 293.917,377.600 293.600 C 378.040 293.283,378.400 292.703,378.400 292.312 C 378.400 291.920,378.535 291.599,378.700 291.599 C 378.865 291.598,379.450 290.608,380.000 289.400 C 380.550 288.192,381.135 287.202,381.300 287.201 C 381.465 287.201,381.600 286.779,381.600 286.264 C 381.600 285.749,382.500 283.561,383.600 281.400 C 384.700 279.239,385.600 277.141,385.600 276.736 C 385.600 276.331,385.762 276.000,385.960 276.000 C 386.158 276.000,386.284 275.472,386.239 274.826 C 386.194 274.181,386.343 273.686,386.569 273.726 C 386.796 273.767,387.043 273.392,387.119 272.894 C 387.195 272.396,387.386 272.068,387.544 272.165 C 387.701 272.263,387.869 271.870,387.917 271.294 C 387.965 270.717,388.138 270.145,388.302 270.022 C 388.637 269.772,388.831 269.147,389.114 267.400 C 389.220 266.740,389.541 266.063,389.826 265.896 C 390.110 265.729,390.467 264.604,390.618 263.396 C 390.769 262.188,391.051 261.200,391.246 261.200 C 391.441 261.200,391.600 260.660,391.600 260.000 C 391.600 259.340,391.780 258.800,392.000 258.800 C 392.220 258.800,392.400 258.170,392.400 257.400 C 392.400 256.630,392.580 256.000,392.800 256.000 C 393.020 256.000,393.200 255.291,393.200 254.424 C 393.200 253.557,393.380 252.736,393.600 252.600 C 393.820 252.464,394.000 251.913,394.000 251.376 C 394.000 250.839,394.180 250.400,394.400 250.400 C 394.620 250.400,394.800 249.680,394.800 248.800 C 394.800 247.920,394.980 247.200,395.200 247.200 C 395.420 247.200,395.600 246.300,395.600 245.200 C 395.600 244.100,395.780 243.200,396.000 243.200 C 396.220 243.200,396.400 242.469,396.400 241.576 C 396.400 240.596,396.558 240.051,396.800 240.200 C 397.050 240.354,397.200 239.545,397.200 238.047 C 397.200 236.727,397.380 235.536,397.600 235.400 C 397.820 235.264,398.000 234.173,398.000 232.976 C 398.000 231.779,398.180 230.800,398.400 230.800 C 398.627 230.800,398.800 229.627,398.800 228.080 C 398.800 226.437,398.998 225.162,399.300 224.860 C 399.689 224.471,399.800 218.977,399.800 200.113 C 399.800 181.072,399.693 175.831,399.300 175.700 C 398.970 175.590,398.800 174.669,398.800 172.990 C 398.800 171.592,398.620 170.336,398.400 170.200 C 398.180 170.064,398.000 168.984,398.000 167.800 C 398.000 166.616,397.820 165.536,397.600 165.400 C 397.380 165.264,397.200 164.353,397.200 163.376 C 397.200 162.399,397.020 161.600,396.800 161.600 C 396.580 161.600,396.400 161.100,396.400 160.488 C 396.400 159.835,396.070 159.139,395.600 158.800 C 395.160 158.483,394.800 157.987,394.800 157.698 C 394.800 157.009,392.181 154.400,391.489 154.400 C 391.193 154.400,390.564 154.040,390.092 153.600 C 389.620 153.160,388.776 152.800,388.217 152.800 C 387.658 152.800,387.200 152.620,387.200 152.400 C 387.200 152.169,385.941 152.000,384.224 152.000 C 382.587 152.000,381.136 152.180,381.000 152.400 C 380.864 152.620,380.431 152.800,380.038 152.800 C 379.126 152.800,377.032 153.839,376.393 154.608 C 376.123 154.934,375.731 155.200,375.522 155.200 C 374.935 155.200,374.000 156.274,374.000 156.949 C 374.000 157.282,373.667 157.790,373.260 158.077 C 372.853 158.365,372.280 159.265,371.987 160.079 C 371.694 160.892,371.307 161.466,371.127 161.355 C 370.947 161.244,370.800 161.580,370.800 162.101 C 370.800 162.691,370.346 163.385,369.600 163.937 C 368.940 164.425,368.400 165.053,368.400 165.334 C 368.400 165.965,365.933 168.400,365.293 168.400 C 365.035 168.400,364.425 168.940,363.937 169.600 C 363.385 170.346,362.691 170.800,362.101 170.800 C 361.580 170.800,361.247 170.953,361.363 171.140 C 361.479 171.328,360.859 171.716,359.987 172.004 C 359.114 172.292,358.400 172.679,358.400 172.864 C 358.400 173.049,357.680 173.200,356.800 173.200 C 355.920 173.200,355.200 173.380,355.200 173.600 C 355.200 173.846,353.200 174.000,350.000 174.000 C 346.800 174.000,344.800 173.846,344.800 173.600 C 344.800 173.380,344.080 173.200,343.200 173.200 C 342.320 173.200,341.600 173.054,341.600 172.875 C 341.600 172.696,340.966 172.301,340.191 171.997 C 339.417 171.693,338.489 171.119,338.129 170.722 C 337.770 170.325,337.114 170.000,336.671 170.000 C 336.229 170.000,335.976 169.891,336.109 169.758 C 336.412 169.454,334.595 167.600,333.995 167.600 C 333.752 167.600,333.664 167.420,333.800 167.200 C 333.936 166.980,333.677 166.800,333.224 166.800 C 332.707 166.800,332.399 166.539,332.396 166.100 C 332.394 165.715,331.854 164.975,331.196 164.455 C 330.538 163.935,330.000 163.170,330.000 162.755 C 330.000 162.340,329.865 161.999,329.700 161.999 C 329.535 161.998,328.950 161.008,328.400 159.800 C 327.850 158.592,327.265 157.602,327.100 157.601 C 326.935 157.601,326.800 157.060,326.800 156.400 C 326.800 155.740,326.620 155.200,326.400 155.200 C 326.180 155.200,326.000 154.883,326.000 154.496 C 326.000 154.108,325.471 153.354,324.823 152.819 C 324.176 152.285,323.737 151.702,323.847 151.524 C 323.957 151.346,323.858 151.200,323.627 151.200 C 323.396 151.200,322.691 150.660,322.060 150.000 C 321.429 149.340,320.708 148.800,320.457 148.800 C 320.206 148.800,320.000 148.655,320.000 148.478 C 320.000 148.301,319.240 148.112,318.310 148.057 C 317.381 148.002,316.526 147.832,316.410 147.679 C 316.079 147.240,311.598 147.353,311.600 147.800 C 311.600 148.032,310.760 148.142,309.600 148.061 C 308.332 147.973,307.600 148.083,307.600 148.361 C 307.600 148.665,305.136 148.800,299.600 148.800 C 295.200 148.800,291.600 148.641,291.600 148.447 C 291.600 148.253,290.264 147.969,288.631 147.816 C 286.634 147.629,285.590 147.351,285.443 146.969 C 285.321 146.650,284.692 146.400,284.013 146.400 C 283.346 146.400,282.800 146.220,282.800 146.000 C 282.800 145.780,282.474 145.600,282.075 145.600 C 281.677 145.600,280.967 145.242,280.497 144.804 C 280.027 144.367,279.386 144.107,279.073 144.227 C 278.760 144.348,278.396 144.166,278.264 143.823 C 278.133 143.480,277.659 143.200,277.213 143.200 C 276.766 143.200,276.400 143.034,276.400 142.832 C 276.400 142.629,275.851 142.343,275.181 142.196 C 274.510 142.049,273.747 141.584,273.485 141.164 C 273.222 140.744,272.571 140.400,272.037 140.400 C 271.503 140.400,271.183 140.283,271.326 140.140 C 271.618 139.848,269.619 138.004,269.000 137.995 C 268.375 137.985,262.000 131.409,261.996 130.770 C 261.994 130.457,261.454 129.775,260.796 129.255 C 260.138 128.735,259.600 127.970,259.600 127.555 C 259.600 127.140,259.429 126.800,259.220 126.800 C 259.012 126.800,258.282 125.630,257.600 124.200 C 256.918 122.770,256.176 121.600,255.953 121.600 C 255.728 121.600,255.660 121.242,255.800 120.800 C 255.985 120.216,255.872 120.000,255.380 120.000 C 254.903 120.000,254.768 119.766,254.916 119.199 C 255.031 118.759,254.962 118.500,254.763 118.623 C 254.563 118.746,254.400 118.487,254.400 118.047 C 254.400 117.607,254.220 117.136,254.000 117.000 C 253.780 116.864,253.600 116.416,253.600 116.005 C 253.600 115.594,253.311 114.968,252.957 114.614 C 252.550 114.207,252.377 113.535,252.487 112.785 C 252.583 112.133,252.513 111.600,252.331 111.600 C 252.149 111.600,252.000 110.981,252.000 110.224 C 252.000 109.467,251.820 108.736,251.600 108.600 C 251.105 108.294,251.049 92.400,251.543 92.400 C 251.957 92.400,252.723 83.644,252.321 83.500 C 252.167 83.445,251.997 82.646,251.943 81.724 C 251.890 80.802,251.701 80.138,251.523 80.247 C 251.345 80.357,251.200 80.077,251.200 79.624 C 251.200 79.171,251.049 78.800,250.864 78.800 C 250.679 78.800,250.049 78.127,249.464 77.305 C 248.879 76.482,248.400 75.961,248.400 76.147 C 248.400 76.333,247.878 75.926,247.240 75.242 C 246.601 74.559,245.791 74.000,245.440 74.000 C 245.088 74.000,244.800 73.820,244.800 73.600 C 244.800 73.380,244.275 73.200,243.633 73.200 C 242.992 73.200,242.407 73.065,242.333 72.900 C 242.134 72.452,237.183 70.000,236.477 70.000 C 236.141 70.000,235.976 69.891,236.109 69.758 C 236.440 69.427,234.568 67.600,233.898 67.600 C 233.176 67.600,232.401 66.784,232.396 66.020 C 232.394 65.679,231.854 64.975,231.196 64.455 C 230.538 63.935,230.000 63.247,230.000 62.926 C 230.000 62.216,228.992 61.142,228.648 61.486 C 228.511 61.622,228.400 61.469,228.400 61.146 C 228.400 60.358,227.475 58.407,227.100 58.403 C 226.935 58.401,226.800 57.680,226.800 56.800 C 226.800 55.920,226.620 55.200,226.400 55.200 C 226.154 55.200,226.000 53.200,226.000 50.000 C 226.000 46.800,226.154 44.800,226.400 44.800 C 226.620 44.800,226.800 44.080,226.800 43.200 C 226.800 42.320,226.935 41.599,227.100 41.597 C 227.465 41.593,228.400 39.651,228.400 38.897 C 228.400 38.598,228.580 38.464,228.800 38.600 C 229.020 38.736,229.200 38.565,229.200 38.220 C 229.200 37.875,229.740 37.028,230.400 36.337 C 231.060 35.646,231.600 34.873,231.600 34.619 C 231.600 34.048,234.081 31.600,234.660 31.600 C 234.892 31.600,235.646 31.060,236.337 30.400 C 237.028 29.740,237.875 29.200,238.220 29.200 C 238.565 29.200,238.736 29.020,238.600 28.800 C 238.464 28.580,238.636 28.400,238.982 28.400 C 239.775 28.400,241.195 27.611,242.043 26.700 C 242.401 26.315,242.911 26.000,243.175 26.000 C 243.749 26.000,244.800 25.015,244.800 24.478 C 244.800 24.269,245.066 23.877,245.392 23.607 C 246.169 22.961,247.200 20.871,247.200 19.939 C 247.200 19.532,247.380 19.200,247.600 19.200 C 247.831 19.200,248.000 17.941,248.000 16.224 C 248.000 14.587,247.820 13.136,247.600 13.000 C 247.380 12.864,247.200 12.223,247.200 11.576 C 247.200 10.929,247.020 10.400,246.800 10.400 C 246.580 10.400,246.400 10.130,246.400 9.800 C 246.400 9.470,246.220 9.200,246.000 9.200 C 245.780 9.200,245.600 8.924,245.600 8.587 C 245.600 7.892,243.054 5.200,242.397 5.200 C 242.160 5.200,241.580 4.840,241.108 4.400 C 240.636 3.960,239.934 3.600,239.548 3.600 C 239.163 3.600,238.736 3.420,238.600 3.200 C 238.464 2.980,237.564 2.800,236.600 2.800 C 235.636 2.800,234.736 2.620,234.600 2.400 C 234.464 2.180,233.384 2.000,232.200 2.000 C 231.016 2.000,229.936 1.820,229.800 1.600 C 229.664 1.380,228.408 1.200,227.010 1.200 C 225.394 1.200,224.409 1.026,224.307 0.722 C 224.149 0.246,187.734 -0.114,179.003 0.274 M205.200 26.400 C 205.200 26.620,205.020 26.800,204.800 26.800 C 204.580 26.800,204.400 27.261,204.400 27.824 C 204.400 28.387,204.250 28.755,204.067 28.642 C 203.884 28.529,203.489 29.339,203.188 30.443 C 202.888 31.547,202.497 32.540,202.321 32.649 C 202.144 32.758,202.000 33.276,202.000 33.800 C 202.000 34.324,201.820 34.864,201.600 35.000 C 201.380 35.136,201.200 35.687,201.200 36.224 C 201.200 36.761,201.020 37.200,200.800 37.200 C 200.580 37.200,200.400 38.089,200.400 39.176 C 200.400 40.263,200.220 41.264,200.000 41.400 C 199.754 41.552,199.600 44.863,199.600 50.000 C 199.600 55.137,199.754 58.448,200.000 58.600 C 200.220 58.736,200.400 59.737,200.400 60.824 C 200.400 61.911,200.580 62.800,200.800 62.800 C 201.020 62.800,201.200 63.239,201.200 63.776 C 201.200 64.313,201.380 64.864,201.600 65.000 C 201.820 65.136,202.000 65.676,202.000 66.200 C 202.000 66.724,202.180 67.264,202.400 67.400 C 202.620 67.536,202.800 68.177,202.800 68.824 C 202.800 69.471,202.980 70.000,203.200 70.000 C 203.420 70.000,203.600 70.270,203.600 70.600 C 203.600 70.930,203.780 71.200,204.000 71.200 C 204.220 71.200,204.400 71.650,204.400 72.200 C 204.400 72.750,204.536 73.200,204.702 73.200 C 204.869 73.200,205.260 73.785,205.572 74.500 C 205.884 75.215,206.468 76.091,206.870 76.447 C 207.271 76.803,207.600 77.322,207.600 77.600 C 207.600 77.878,207.915 78.397,208.300 78.753 C 208.685 79.109,209.341 80.070,209.757 80.889 C 210.173 81.707,210.623 82.321,210.757 82.252 C 210.891 82.183,211.315 82.458,211.700 82.863 C 212.085 83.269,212.297 83.600,212.171 83.600 C 212.046 83.600,212.213 83.870,212.543 84.200 C 212.873 84.530,213.366 84.800,213.638 84.800 C 213.910 84.800,214.022 84.911,213.886 85.048 C 213.581 85.352,214.355 86.152,215.300 86.510 C 215.685 86.656,216.000 87.081,216.000 87.454 C 216.000 87.828,216.111 88.022,216.248 87.886 C 216.558 87.576,217.600 88.585,217.600 89.195 C 217.600 89.444,217.761 89.548,217.958 89.426 C 218.155 89.304,218.419 89.474,218.546 89.802 C 218.672 90.131,219.121 90.400,219.545 90.400 C 219.968 90.400,220.418 90.670,220.545 91.000 C 220.671 91.330,221.101 91.600,221.499 91.600 C 221.897 91.600,222.483 91.960,222.800 92.400 C 223.117 92.840,223.697 93.200,224.088 93.200 C 224.748 93.200,224.800 93.822,224.800 101.800 C 224.800 106.530,224.954 110.400,225.141 110.400 C 225.329 110.400,225.608 112.155,225.762 114.300 C 225.915 116.445,226.062 118.433,226.087 118.717 C 226.112 119.002,226.331 119.159,226.573 119.066 C 226.860 118.956,226.961 119.435,226.864 120.449 C 226.751 121.631,226.860 122.000,227.321 122.000 C 227.710 122.000,227.857 122.261,227.733 122.735 C 227.627 123.139,227.914 124.135,228.370 124.947 C 228.827 125.760,229.200 126.869,229.200 127.412 C 229.200 127.955,229.380 128.400,229.600 128.400 C 229.820 128.400,230.000 128.762,230.000 129.205 C 230.000 129.923,230.661 131.462,231.201 132.000 C 231.406 132.205,231.833 133.093,232.957 135.656 C 233.309 136.458,233.867 137.217,234.198 137.344 C 234.529 137.471,234.800 137.941,234.800 138.387 C 234.800 138.834,234.980 139.200,235.200 139.200 C 235.420 139.200,235.600 139.638,235.600 140.173 C 235.600 140.795,235.889 141.238,236.400 141.400 C 236.840 141.540,237.200 141.962,237.200 142.339 C 237.200 142.715,237.560 143.283,238.000 143.600 C 238.440 143.917,238.800 144.425,238.800 144.728 C 238.800 145.031,239.340 145.783,240.000 146.400 C 240.660 147.017,241.200 147.740,241.200 148.007 C 241.200 148.274,241.965 149.192,242.900 150.046 C 243.835 150.901,244.480 151.600,244.333 151.600 C 244.187 151.600,244.686 152.238,245.443 153.017 C 246.200 153.797,246.976 154.338,247.167 154.220 C 247.358 154.102,247.633 154.476,247.777 155.050 C 247.921 155.624,248.142 155.991,248.268 155.865 C 248.395 155.739,249.203 156.347,250.064 157.218 C 250.926 158.088,251.822 158.800,252.055 158.800 C 252.288 158.800,252.983 159.340,253.600 160.000 C 254.217 160.660,254.969 161.200,255.272 161.200 C 255.575 161.200,256.083 161.560,256.400 162.000 C 256.717 162.440,257.275 162.800,257.639 162.800 C 258.465 162.800,259.295 163.749,258.897 164.237 C 258.733 164.437,258.753 164.477,258.940 164.327 C 259.298 164.039,262.232 165.409,263.129 166.284 C 263.419 166.568,263.914 166.800,264.229 166.800 C 264.543 166.800,264.800 166.936,264.800 167.102 C 264.800 167.269,265.385 167.644,266.100 167.936 C 268.362 168.860,269.200 169.326,269.200 169.658 C 269.200 169.835,269.740 169.872,270.400 169.740 C 271.339 169.552,271.600 169.641,271.600 170.150 C 271.600 170.606,271.959 170.800,272.800 170.800 C 273.460 170.800,274.000 171.010,274.000 171.267 C 274.000 171.523,274.121 171.613,274.268 171.465 C 274.416 171.318,274.974 171.484,275.509 171.835 C 276.044 172.185,276.812 172.386,277.215 172.280 C 277.621 172.174,278.043 172.336,278.162 172.644 C 278.279 172.950,278.921 173.200,279.587 173.200 C 280.254 173.200,280.800 173.350,280.800 173.533 C 280.800 173.717,281.025 173.883,281.300 173.902 C 287.541 174.343,289.600 174.581,289.600 174.860 C 289.600 175.047,293.470 175.200,298.200 175.200 C 306.178 175.200,306.800 175.252,306.800 175.912 C 306.800 176.303,307.160 176.883,307.600 177.200 C 308.040 177.517,308.400 178.097,308.400 178.488 C 308.400 178.880,308.545 179.200,308.723 179.200 C 308.901 179.200,309.365 179.922,309.754 180.804 C 310.143 181.687,310.583 182.346,310.731 182.268 C 310.879 182.190,311.315 182.458,311.700 182.863 C 312.085 183.269,312.297 183.600,312.171 183.600 C 312.046 183.600,312.213 183.870,312.543 184.200 C 312.873 184.530,313.366 184.800,313.638 184.800 C 313.910 184.800,314.022 184.911,313.886 185.048 C 313.581 185.352,314.355 186.152,315.300 186.510 C 315.685 186.656,316.000 187.081,316.000 187.454 C 316.000 187.828,316.111 188.022,316.248 187.886 C 316.569 187.564,317.600 188.595,317.600 189.238 C 317.600 189.510,317.714 189.619,317.853 189.480 C 317.992 189.341,318.457 189.673,318.885 190.217 C 319.314 190.762,319.839 191.099,320.053 190.967 C 320.267 190.835,320.769 191.103,321.168 191.563 C 321.567 192.023,322.148 192.400,322.459 192.400 C 322.769 192.400,323.283 192.760,323.600 193.200 C 323.917 193.640,324.497 194.000,324.888 194.000 C 325.280 194.000,325.600 194.180,325.600 194.400 C 325.600 194.620,325.870 194.800,326.200 194.800 C 326.530 194.800,326.800 194.980,326.800 195.200 C 326.800 195.420,327.261 195.600,327.824 195.600 C 328.404 195.600,328.740 195.773,328.600 196.000 C 328.464 196.220,328.713 196.400,329.153 196.400 C 329.593 196.400,330.064 196.580,330.200 196.800 C 330.336 197.020,330.876 197.200,331.400 197.200 C 331.924 197.200,332.464 197.380,332.600 197.600 C 332.736 197.820,333.276 198.000,333.800 198.000 C 334.324 198.000,334.864 198.180,335.000 198.400 C 335.136 198.620,335.676 198.800,336.200 198.800 C 336.724 198.800,337.264 198.980,337.400 199.200 C 337.536 199.420,338.436 199.600,339.400 199.600 C 340.364 199.600,341.264 199.780,341.400 200.000 C 341.552 200.247,344.937 200.400,350.224 200.400 C 355.675 200.400,358.800 200.254,358.800 200.000 C 358.800 199.780,359.700 199.600,360.800 199.600 C 361.900 199.600,362.800 199.420,362.800 199.200 C 362.800 198.980,363.239 198.800,363.776 198.800 C 364.313 198.800,364.864 198.620,365.000 198.400 C 365.136 198.180,365.676 198.000,366.200 198.000 C 366.724 198.000,367.264 197.820,367.400 197.600 C 367.536 197.380,368.177 197.200,368.824 197.200 C 369.471 197.200,370.000 197.020,370.000 196.800 C 370.000 196.580,370.270 196.400,370.600 196.400 C 370.930 196.400,371.200 196.220,371.200 196.000 C 371.200 195.780,371.650 195.600,372.200 195.600 C 372.750 195.600,373.200 195.420,373.200 195.200 C 373.200 194.980,373.380 194.800,373.600 194.800 C 374.146 194.800,374.146 215.862,373.600 216.200 C 373.380 216.336,373.200 217.787,373.200 219.424 C 373.200 221.141,373.031 222.400,372.800 222.400 C 372.571 222.400,372.400 223.608,372.400 225.224 C 372.400 227.004,372.252 227.956,372.000 227.800 C 371.749 227.645,371.600 228.537,371.600 230.200 C 371.600 231.863,371.451 232.755,371.200 232.600 C 370.953 232.448,370.800 233.129,370.800 234.376 C 370.800 235.489,370.620 236.400,370.400 236.400 C 370.180 236.400,370.000 237.109,370.000 237.976 C 370.000 238.843,369.840 239.652,369.644 239.773 C 369.309 239.980,369.073 240.989,368.543 244.498 C 368.418 245.322,368.155 245.896,367.958 245.774 C 367.761 245.652,367.600 246.193,367.600 246.976 C 367.600 247.759,367.420 248.400,367.200 248.400 C 366.980 248.400,366.800 249.030,366.800 249.800 C 366.800 250.570,366.620 251.200,366.400 251.200 C 366.180 251.200,366.000 251.729,366.000 252.376 C 366.000 253.023,365.820 253.664,365.600 253.800 C 365.380 253.936,365.200 254.487,365.200 255.024 C 365.200 255.561,365.041 256.000,364.846 256.000 C 364.651 256.000,364.367 257.001,364.214 258.225 C 364.053 259.512,363.708 260.537,363.393 260.658 C 363.095 260.772,362.948 261.121,363.068 261.433 C 363.200 261.777,363.033 262.000,362.643 262.000 C 362.232 262.000,362.000 262.344,362.000 262.954 C 362.000 263.479,361.731 264.424,361.402 265.054 C 361.074 265.684,360.804 266.676,360.802 267.257 C 360.801 267.839,360.553 268.409,360.251 268.525 C 359.948 268.641,359.580 269.381,359.432 270.168 C 359.285 270.956,358.992 271.600,358.782 271.600 C 358.572 271.600,358.400 271.872,358.400 272.205 C 358.400 272.761,357.678 274.322,357.200 274.800 C 356.714 275.286,356.000 276.844,356.000 277.418 C 356.000 277.764,355.820 277.936,355.600 277.800 C 355.373 277.660,355.200 277.996,355.200 278.576 C 355.200 279.139,355.020 279.600,354.800 279.600 C 354.580 279.600,354.400 279.971,354.400 280.424 C 354.400 280.877,354.220 281.136,354.000 281.000 C 353.773 280.860,353.600 281.196,353.600 281.776 C 353.600 282.339,353.464 282.800,353.298 282.800 C 353.131 282.800,352.740 283.385,352.428 284.100 C 352.116 284.815,351.532 285.691,351.130 286.047 C 350.729 286.403,350.400 287.078,350.400 287.547 C 350.400 288.016,350.220 288.400,350.000 288.400 C 349.780 288.400,349.600 288.588,349.600 288.817 C 349.600 289.046,349.240 289.620,348.800 290.092 C 348.360 290.564,348.000 291.187,348.000 291.475 C 348.000 291.764,347.809 292.000,347.576 292.000 C 347.343 292.000,347.270 292.189,347.413 292.421 C 347.556 292.652,347.251 293.237,346.736 293.721 C 346.221 294.204,345.440 295.363,345.000 296.295 C 344.560 297.228,343.975 297.993,343.700 297.995 C 343.425 297.998,343.200 298.281,343.200 298.624 C 343.200 298.967,343.057 299.159,342.883 299.051 C 342.709 298.944,342.539 299.217,342.505 299.660 C 342.472 300.102,341.985 300.924,341.422 301.487 C 340.860 302.049,340.400 302.682,340.400 302.894 C 340.400 303.106,339.860 303.783,339.200 304.400 C 338.540 305.017,338.000 305.733,338.000 305.992 C 338.000 306.251,337.280 307.154,336.400 308.000 C 335.520 308.846,334.800 309.851,334.800 310.235 C 334.800 310.619,334.681 310.814,334.536 310.669 C 334.390 310.524,334.061 310.809,333.803 311.302 C 333.545 311.796,333.111 312.151,332.838 312.090 C 332.564 312.030,332.435 312.133,332.550 312.319 C 332.817 312.752,331.357 314.023,331.000 313.667 C 330.854 313.520,330.784 313.580,330.846 313.800 C 331.067 314.586,330.335 316.000,329.706 316.000 C 329.355 316.000,329.176 316.109,329.309 316.242 C 329.604 316.537,327.559 318.641,327.115 318.500 C 326.942 318.445,326.800 318.568,326.800 318.774 C 326.800 319.263,319.263 326.800,318.774 326.800 C 318.568 326.800,318.445 326.942,318.500 327.115 C 318.641 327.559,316.537 329.604,316.242 329.309 C 316.109 329.176,316.000 329.355,316.000 329.706 C 316.000 330.335,314.586 331.067,313.800 330.846 C 313.580 330.784,313.520 330.854,313.667 331.000 C 314.023 331.357,312.752 332.817,312.319 332.550 C 312.133 332.435,312.030 332.564,312.090 332.838 C 312.151 333.111,311.796 333.545,311.302 333.803 C 310.809 334.061,310.524 334.390,310.669 334.536 C 310.814 334.681,310.619 334.800,310.235 334.800 C 309.851 334.800,308.846 335.520,308.000 336.400 C 307.154 337.280,306.251 338.000,305.992 338.000 C 305.733 338.000,305.017 338.540,304.400 339.200 C 303.783 339.860,303.106 340.400,302.894 340.400 C 302.682 340.400,302.049 340.860,301.487 341.422 C 300.924 341.985,300.102 342.472,299.660 342.505 C 299.217 342.539,298.944 342.709,299.051 342.883 C 299.159 343.057,298.967 343.200,298.624 343.200 C 298.281 343.200,297.998 343.425,297.995 343.700 C 297.993 343.975,297.228 344.560,296.295 345.000 C 295.363 345.440,294.204 346.221,293.721 346.736 C 293.237 347.251,292.652 347.556,292.421 347.413 C 292.189 347.270,292.000 347.343,292.000 347.576 C 292.000 347.809,291.764 348.000,291.475 348.000 C 291.187 348.000,290.564 348.360,290.092 348.800 C 289.620 349.240,289.046 349.600,288.817 349.600 C 288.588 349.600,288.400 349.780,288.400 350.000 C 288.400 350.220,288.016 350.400,287.547 350.400 C 287.078 350.400,286.403 350.729,286.047 351.130 C 285.691 351.532,284.815 352.116,284.100 352.428 C 283.385 352.740,282.800 353.131,282.800 353.298 C 282.800 353.464,282.339 353.600,281.776 353.600 C 281.196 353.600,280.860 353.773,281.000 354.000 C 281.136 354.220,280.877 354.400,280.424 354.400 C 279.971 354.400,279.600 354.580,279.600 354.800 C 279.600 355.020,279.139 355.200,278.576 355.200 C 277.996 355.200,277.660 355.373,277.800 355.600 C 277.936 355.820,277.764 356.000,277.418 356.000 C 276.844 356.000,275.286 356.714,274.800 357.200 C 274.322 357.678,272.761 358.400,272.205 358.400 C 271.872 358.400,271.600 358.572,271.600 358.782 C 271.600 358.992,270.956 359.285,270.168 359.432 C 269.381 359.580,268.641 359.948,268.525 360.251 C 268.409 360.553,267.839 360.801,267.257 360.802 C 266.676 360.804,265.684 361.074,265.054 361.402 C 264.424 361.731,263.479 362.000,262.954 362.000 C 262.344 362.000,262.000 362.232,262.000 362.643 C 262.000 363.033,261.777 363.200,261.433 363.068 C 261.121 362.948,260.772 363.095,260.658 363.393 C 260.537 363.708,259.512 364.053,258.225 364.214 C 257.001 364.367,256.000 364.651,256.000 364.846 C 256.000 365.041,255.561 365.200,255.024 365.200 C 254.487 365.200,253.936 365.380,253.800 365.600 C 253.664 365.820,253.023 366.000,252.376 366.000 C 251.729 366.000,251.200 366.180,251.200 366.400 C 251.200 366.620,250.570 366.800,249.800 366.800 C 249.030 366.800,248.400 366.980,248.400 367.200 C 248.400 367.420,247.759 367.600,246.976 367.600 C 246.193 367.600,245.652 367.761,245.774 367.958 C 245.896 368.155,245.322 368.418,244.498 368.543 C 240.989 369.073,239.980 369.309,239.773 369.644 C 239.652 369.840,238.843 370.000,237.976 370.000 C 237.109 370.000,236.400 370.180,236.400 370.400 C 236.400 370.620,235.489 370.800,234.376 370.800 C 233.129 370.800,232.448 370.953,232.600 371.200 C 232.755 371.451,231.863 371.600,230.200 371.600 C 228.537 371.600,227.645 371.749,227.800 372.000 C 227.956 372.252,227.004 372.400,225.224 372.400 C 223.608 372.400,222.400 372.571,222.400 372.800 C 222.400 373.031,221.141 373.200,219.424 373.200 C 217.787 373.200,216.336 373.380,216.200 373.600 C 215.860 374.149,184.000 374.149,184.000 373.600 C 184.000 373.367,182.667 373.200,180.800 373.200 C 178.933 373.200,177.600 373.033,177.600 372.800 C 177.600 372.575,176.475 372.400,175.024 372.400 C 173.607 372.400,172.336 372.220,172.200 372.000 C 172.064 371.780,170.973 371.600,169.776 371.600 C 168.579 371.600,167.600 371.420,167.600 371.200 C 167.600 370.980,166.700 370.800,165.600 370.800 C 164.500 370.800,163.600 370.620,163.600 370.400 C 163.600 370.180,162.880 370.000,162.000 370.000 C 161.120 370.000,160.400 369.820,160.400 369.600 C 160.400 369.380,159.781 369.200,159.024 369.200 C 158.267 369.200,157.536 369.020,157.400 368.800 C 157.264 368.580,156.433 368.400,155.553 368.400 C 154.588 368.400,154.051 368.241,154.200 368.000 C 154.347 367.761,153.863 367.600,153.000 367.600 C 152.137 367.600,151.653 367.439,151.800 367.200 C 151.949 366.958,151.404 366.800,150.424 366.800 C 149.531 366.800,148.800 366.659,148.800 366.487 C 148.800 366.315,148.315 366.134,147.722 366.085 C 147.130 366.036,146.545 365.862,146.422 365.698 C 146.300 365.534,145.750 365.336,145.200 365.259 C 144.650 365.181,144.090 364.941,143.955 364.725 C 143.821 364.508,143.551 364.351,143.355 364.375 C 142.243 364.512,139.623 363.836,139.442 363.365 C 139.325 363.061,138.954 362.919,138.615 363.050 C 138.209 363.205,138.000 363.052,138.000 362.599 C 138.000 362.053,137.720 361.945,136.628 362.073 C 135.873 362.161,135.344 362.090,135.452 361.916 C 135.696 361.520,133.866 360.800,132.617 360.800 C 132.105 360.800,131.586 360.540,131.464 360.222 C 131.342 359.904,130.603 359.524,129.821 359.378 C 129.039 359.231,128.400 358.951,128.400 358.755 C 128.400 358.560,128.040 358.400,127.600 358.400 C 127.160 358.400,126.800 358.220,126.800 358.000 C 126.800 357.780,126.440 357.600,126.000 357.600 C 125.560 357.600,125.199 357.465,125.199 357.300 C 125.198 357.135,124.208 356.550,123.000 356.000 C 121.792 355.450,120.802 354.865,120.801 354.700 C 120.801 354.535,120.440 354.400,120.000 354.400 C 119.560 354.400,119.200 354.220,119.200 354.000 C 119.200 353.780,118.840 353.600,118.400 353.600 C 117.960 353.600,117.600 353.420,117.600 353.200 C 117.600 352.980,117.358 352.800,117.061 352.800 C 116.381 352.800,114.090 351.669,113.791 351.185 C 113.667 350.985,112.899 350.507,112.083 350.124 C 111.267 349.740,110.251 349.105,109.825 348.713 C 109.398 348.321,108.813 348.000,108.525 348.000 C 108.236 348.000,108.000 347.826,108.000 347.613 C 108.000 347.399,107.743 347.324,107.430 347.444 C 107.098 347.571,106.588 347.248,106.209 346.669 C 105.851 346.123,105.117 345.566,104.579 345.430 C 104.041 345.295,103.600 345.008,103.600 344.792 C 103.600 344.577,103.240 344.400,102.800 344.400 C 102.360 344.400,102.000 344.207,102.000 343.971 C 102.000 343.211,100.977 342.400,100.018 342.400 C 99.808 342.400,99.186 341.950,98.636 341.400 C 98.086 340.850,97.430 340.400,97.179 340.400 C 96.927 340.400,96.217 339.860,95.600 339.200 C 94.983 338.540,94.267 338.000,94.008 338.000 C 93.749 338.000,92.824 337.280,91.953 336.400 C 91.082 335.520,90.095 334.800,89.761 334.800 C 89.426 334.800,89.264 334.620,89.400 334.400 C 89.536 334.180,89.379 334.000,89.051 334.000 C 88.722 334.000,88.339 333.637,88.198 333.194 C 88.057 332.751,87.784 332.486,87.590 332.606 C 87.396 332.726,86.976 332.323,86.655 331.712 C 86.335 331.100,86.011 330.671,85.936 330.759 C 85.644 331.099,84.000 330.317,84.000 329.837 C 84.000 329.557,83.566 329.130,83.035 328.889 C 82.504 328.647,81.952 328.078,81.808 327.624 C 81.664 327.171,81.387 326.800,81.192 326.800 C 80.723 326.800,73.200 319.240,73.200 318.768 C 73.200 318.566,73.028 318.400,72.818 318.400 C 72.608 318.400,71.986 317.950,71.436 317.400 C 70.886 316.850,70.558 316.400,70.707 316.400 C 70.856 316.400,70.578 316.120,70.089 315.777 C 69.600 315.435,69.200 314.794,69.200 314.354 C 69.200 313.913,69.047 313.647,68.860 313.763 C 68.673 313.878,68.286 313.535,68.000 313.000 C 67.714 312.465,67.354 312.105,67.200 312.200 C 67.046 312.295,66.683 311.929,66.393 311.386 C 66.102 310.844,65.715 310.400,65.532 310.400 C 65.350 310.400,65.200 310.206,65.200 309.969 C 65.200 309.731,64.480 308.846,63.600 308.000 C 62.720 307.154,62.000 306.251,62.000 305.992 C 62.000 305.733,61.460 305.017,60.800 304.400 C 60.140 303.783,59.600 303.057,59.600 302.786 C 59.600 302.515,59.141 301.899,58.580 301.417 C 58.020 300.935,57.532 300.162,57.497 299.698 C 57.462 299.235,57.246 298.888,57.017 298.928 C 56.788 298.967,56.649 298.762,56.710 298.470 C 56.770 298.179,56.649 298.046,56.440 298.175 C 56.232 298.304,55.645 297.552,55.136 296.505 C 54.627 295.457,53.810 294.210,53.321 293.734 C 52.832 293.258,52.320 292.421,52.183 291.874 C 52.045 291.327,51.633 290.537,51.267 290.119 C 50.381 289.109,49.600 287.720,49.600 287.152 C 49.600 286.900,49.285 286.401,48.900 286.043 C 47.999 285.204,47.200 283.777,47.200 283.005 C 47.200 282.672,47.020 282.400,46.800 282.400 C 46.580 282.400,46.400 282.040,46.400 281.600 C 46.400 281.160,46.220 280.800,46.000 280.800 C 45.780 280.800,45.600 280.440,45.600 280.000 C 45.600 279.560,45.420 279.200,45.200 279.200 C 44.980 279.200,44.800 278.829,44.800 278.376 C 44.800 277.923,44.620 277.664,44.400 277.800 C 44.180 277.936,44.000 277.802,44.000 277.503 C 44.000 276.749,43.065 274.807,42.700 274.803 C 42.535 274.801,42.400 274.440,42.400 274.000 C 42.400 273.560,42.220 273.200,42.000 273.200 C 41.780 273.200,41.600 272.840,41.600 272.400 C 41.600 271.960,41.401 271.600,41.157 271.600 C 40.914 271.600,40.818 271.330,40.945 271.000 C 41.071 270.670,41.001 270.400,40.787 270.400 C 40.574 270.400,40.400 270.034,40.400 269.587 C 40.400 269.141,40.130 268.671,39.800 268.545 C 39.470 268.418,39.199 267.839,39.198 267.257 C 39.196 266.676,38.926 265.684,38.598 265.054 C 38.269 264.424,38.000 263.479,38.000 262.954 C 38.000 262.429,37.820 262.000,37.600 262.000 C 37.380 262.000,37.200 261.730,37.200 261.400 C 37.200 261.070,37.020 260.800,36.800 260.800 C 36.580 260.800,36.400 260.386,36.400 259.880 C 36.400 259.374,36.221 258.781,36.002 258.562 C 35.784 258.344,35.564 257.678,35.515 257.082 C 35.466 256.487,35.285 256.000,35.113 256.000 C 34.941 256.000,34.800 255.460,34.800 254.800 C 34.800 254.140,34.620 253.600,34.400 253.600 C 34.180 253.600,34.000 253.161,34.000 252.624 C 34.000 252.087,33.820 251.536,33.600 251.400 C 33.380 251.264,33.200 250.443,33.200 249.576 C 33.200 248.709,33.020 248.000,32.800 248.000 C 32.580 248.000,32.400 247.449,32.400 246.776 C 32.400 246.063,32.233 245.656,32.000 245.800 C 31.759 245.949,31.600 245.412,31.600 244.447 C 31.600 243.567,31.420 242.736,31.200 242.600 C 30.980 242.464,30.800 241.733,30.800 240.976 C 30.800 240.219,30.620 239.600,30.400 239.600 C 30.180 239.600,30.000 238.880,30.000 238.000 C 30.000 237.120,29.820 236.400,29.600 236.400 C 29.380 236.400,29.200 235.500,29.200 234.400 C 29.200 233.300,29.020 232.400,28.800 232.400 C 28.577 232.400,28.400 231.325,28.400 229.976 C 28.400 228.463,28.250 227.646,28.000 227.800 C 27.748 227.956,27.600 227.004,27.600 225.224 C 27.600 223.608,27.429 222.400,27.200 222.400 C 26.969 222.400,26.800 221.141,26.800 219.424 C 26.800 217.787,26.620 216.336,26.400 216.200 C 25.851 215.860,25.851 184.000,26.400 184.000 C 26.633 184.000,26.800 182.667,26.800 180.800 C 26.800 178.933,26.967 177.600,27.200 177.600 C 27.425 177.600,27.600 176.475,27.600 175.024 C 27.600 173.607,27.780 172.336,28.000 172.200 C 28.220 172.064,28.400 170.973,28.400 169.776 C 28.400 168.579,28.580 167.600,28.800 167.600 C 29.020 167.600,29.200 166.711,29.200 165.624 C 29.200 164.537,29.380 163.536,29.600 163.400 C 29.820 163.264,30.000 162.533,30.000 161.776 C 30.000 161.019,30.161 160.400,30.358 160.400 C 30.555 160.400,30.829 159.635,30.968 158.700 C 31.587 154.517,31.705 154.000,32.042 154.000 C 32.239 154.000,32.400 153.561,32.400 153.024 C 32.400 152.487,32.580 151.936,32.800 151.800 C 33.020 151.664,33.200 150.933,33.200 150.176 C 33.200 149.419,33.380 148.800,33.600 148.800 C 33.820 148.800,34.000 148.260,34.000 147.600 C 34.000 146.940,34.180 146.400,34.400 146.400 C 34.620 146.400,34.800 145.860,34.800 145.200 C 34.800 144.540,34.941 144.000,35.113 144.000 C 35.285 144.000,35.466 143.505,35.516 142.900 C 35.566 142.295,35.785 141.740,36.003 141.667 C 36.222 141.593,36.400 141.008,36.400 140.367 C 36.400 139.725,36.580 139.200,36.800 139.200 C 37.020 139.200,37.200 138.930,37.200 138.600 C 37.200 138.270,37.380 138.000,37.600 138.000 C 37.820 138.000,38.000 137.571,38.000 137.046 C 38.000 136.521,38.269 135.576,38.598 134.946 C 38.926 134.316,39.196 133.324,39.198 132.743 C 39.199 132.161,39.460 131.586,39.778 131.464 C 40.096 131.342,40.476 130.603,40.622 129.821 C 40.769 129.039,41.049 128.400,41.245 128.400 C 41.440 128.400,41.600 128.040,41.600 127.600 C 41.600 127.160,41.780 126.800,42.000 126.800 C 42.220 126.800,42.400 126.440,42.400 126.000 C 42.400 125.560,42.546 125.200,42.725 125.200 C 42.904 125.200,43.298 124.570,43.600 123.800 C 43.902 123.030,44.296 122.400,44.475 122.400 C 44.654 122.400,44.800 121.950,44.800 121.400 C 44.800 120.850,44.935 120.399,45.100 120.397 C 45.465 120.393,46.400 118.451,46.400 117.697 C 46.400 117.398,46.580 117.264,46.800 117.400 C 47.020 117.536,47.200 117.364,47.200 117.018 C 47.200 116.225,47.989 114.805,48.900 113.957 C 49.285 113.599,49.600 113.130,49.600 112.915 C 49.600 112.273,50.771 110.122,51.408 109.593 C 51.734 109.323,52.000 108.854,52.000 108.551 C 52.000 108.248,52.174 108.000,52.387 108.000 C 52.601 108.000,52.680 107.752,52.563 107.448 C 52.447 107.145,52.767 106.560,53.276 106.148 C 53.784 105.737,54.619 104.543,55.130 103.495 C 55.642 102.448,56.232 101.696,56.440 101.825 C 56.649 101.954,56.770 101.821,56.710 101.530 C 56.649 101.238,56.788 101.033,57.017 101.072 C 57.246 101.112,57.460 100.799,57.492 100.377 C 57.524 99.954,58.011 99.181,58.575 98.658 C 59.139 98.136,59.600 97.434,59.600 97.099 C 59.600 96.764,60.138 96.065,60.796 95.545 C 61.454 95.025,61.998 94.330,62.005 94.000 C 62.012 93.670,62.734 92.781,63.609 92.024 C 64.484 91.267,65.200 90.412,65.200 90.124 C 65.200 89.836,65.368 89.600,65.573 89.600 C 65.778 89.600,66.060 89.240,66.200 88.800 C 66.340 88.360,66.722 88.000,67.051 88.000 C 67.379 88.000,67.553 87.847,67.437 87.660 C 67.322 87.473,67.671 87.083,68.214 86.793 C 68.756 86.502,69.201 85.980,69.203 85.632 C 69.204 85.285,69.931 84.280,70.817 83.400 C 71.703 82.520,73.006 81.185,73.714 80.433 C 75.364 78.680,78.680 75.364,80.433 73.714 C 81.185 73.006,82.520 71.703,83.400 70.817 C 84.280 69.931,85.285 69.204,85.632 69.203 C 85.980 69.201,86.502 68.756,86.793 68.214 C 87.083 67.671,87.473 67.322,87.660 67.437 C 87.847 67.553,88.000 67.379,88.000 67.051 C 88.000 66.722,88.360 66.340,88.800 66.200 C 89.240 66.060,89.600 65.778,89.600 65.573 C 89.600 65.368,89.836 65.200,90.124 65.200 C 90.412 65.200,91.267 64.484,92.024 63.609 C 92.781 62.734,93.670 62.012,94.000 62.005 C 94.330 61.998,95.025 61.454,95.545 60.796 C 96.065 60.138,96.764 59.600,97.099 59.600 C 97.434 59.600,98.136 59.139,98.658 58.575 C 99.181 58.011,99.954 57.524,100.377 57.492 C 100.799 57.460,101.112 57.246,101.072 57.017 C 101.033 56.788,101.238 56.649,101.530 56.710 C 101.821 56.770,101.954 56.649,101.825 56.440 C 101.696 56.232,102.448 55.642,103.495 55.130 C 104.543 54.619,105.737 53.784,106.148 53.276 C 106.560 52.767,107.145 52.447,107.448 52.563 C 107.752 52.680,108.000 52.601,108.000 52.387 C 108.000 52.174,108.248 52.000,108.551 52.000 C 108.854 52.000,109.323 51.734,109.593 51.408 C 110.122 50.771,112.273 49.600,112.915 49.600 C 113.130 49.600,113.599 49.285,113.957 48.900 C 114.805 47.989,116.225 47.200,117.018 47.200 C 117.364 47.200,117.536 47.020,117.400 46.800 C 117.264 46.580,117.398 46.400,117.697 46.400 C 118.451 46.400,120.393 45.465,120.397 45.100 C 120.399 44.935,120.850 44.800,121.400 44.800 C 121.950 44.800,122.400 44.654,122.400 44.475 C 122.400 44.296,123.030 43.902,123.800 43.600 C 124.570 43.298,125.200 42.904,125.200 42.725 C 125.200 42.546,125.560 42.400,126.000 42.400 C 126.440 42.400,126.800 42.220,126.800 42.000 C 126.800 41.780,127.160 41.600,127.600 41.600 C 128.040 41.600,128.400 41.440,128.400 41.245 C 128.400 41.049,129.039 40.769,129.821 40.622 C 130.603 40.476,131.342 40.096,131.464 39.778 C 131.586 39.460,132.161 39.199,132.743 39.198 C 133.324 39.196,134.316 38.926,134.946 38.598 C 135.576 38.269,136.521 38.000,137.046 38.000 C 137.571 38.000,138.000 37.820,138.000 37.600 C 138.000 37.380,138.270 37.200,138.600 37.200 C 138.930 37.200,139.200 37.020,139.200 36.800 C 139.200 36.580,139.725 36.400,140.367 36.400 C 141.008 36.400,141.593 36.222,141.667 36.003 C 141.740 35.785,142.295 35.566,142.900 35.516 C 143.505 35.466,144.000 35.285,144.000 35.113 C 144.000 34.941,144.540 34.800,145.200 34.800 C 145.860 34.800,146.400 34.620,146.400 34.400 C 146.400 34.180,146.940 34.000,147.600 34.000 C 148.260 34.000,148.800 33.820,148.800 33.600 C 148.800 33.380,149.419 33.200,150.176 33.200 C 150.933 33.200,151.664 33.020,151.800 32.800 C 151.936 32.580,152.487 32.400,153.024 32.400 C 153.561 32.400,154.000 32.239,154.000 32.042 C 154.000 31.845,154.720 31.575,155.600 31.442 C 156.480 31.309,157.920 31.091,158.800 30.958 C 159.680 30.825,160.400 30.555,160.400 30.358 C 160.400 30.161,161.019 30.000,161.776 30.000 C 162.533 30.000,163.264 29.820,163.400 29.600 C 163.536 29.380,164.537 29.200,165.624 29.200 C 166.711 29.200,167.600 29.020,167.600 28.800 C 167.600 28.580,168.579 28.400,169.776 28.400 C 170.973 28.400,172.064 28.220,172.200 28.000 C 172.336 27.780,173.607 27.600,175.024 27.600 C 176.475 27.600,177.600 27.425,177.600 27.200 C 177.600 26.967,178.933 26.800,180.800 26.800 C 182.667 26.800,184.000 26.633,184.000 26.400 C 184.000 26.143,187.800 26.000,194.600 26.000 C 201.400 26.000,205.200 26.143,205.200 26.400 M143.600 75.148 C 143.600 75.459,139.858 76.218,139.100 76.062 C 138.935 76.028,138.800 76.180,138.800 76.400 C 138.800 76.620,138.522 76.800,138.182 76.800 C 137.842 76.800,137.140 77.205,136.622 77.700 C 135.341 78.925,133.255 80.499,132.247 81.001 C 131.790 81.229,131.229 81.790,131.001 82.247 C 130.499 83.255,128.925 85.341,127.700 86.622 C 127.205 87.140,126.800 87.842,126.800 88.182 C 126.800 88.522,126.620 88.800,126.400 88.800 C 126.180 88.800,126.028 88.935,126.062 89.100 C 126.218 89.858,125.459 93.600,125.148 93.600 C 124.690 93.600,124.695 106.288,125.154 106.571 C 125.486 106.777,126.218 110.244,126.068 110.900 C 126.031 111.065,126.180 111.200,126.400 111.200 C 126.620 111.200,126.800 111.476,126.800 111.814 C 126.800 112.400,127.192 112.920,129.700 115.660 C 130.305 116.321,130.800 117.090,130.800 117.369 C 130.800 117.970,132.077 119.200,132.701 119.200 C 132.941 119.200,133.737 119.741,134.469 120.403 C 137.187 122.861,137.641 123.200,138.214 123.200 C 138.536 123.200,138.800 123.380,138.800 123.600 C 138.800 123.820,138.935 123.969,139.100 123.932 C 139.756 123.782,143.223 124.514,143.429 124.846 C 143.549 125.041,146.506 125.200,150.000 125.200 C 153.494 125.200,156.451 125.041,156.571 124.846 C 156.777 124.514,160.244 123.782,160.900 123.932 C 161.065 123.969,161.200 123.820,161.200 123.600 C 161.200 123.380,161.517 123.200,161.904 123.200 C 162.291 123.200,162.832 122.840,163.107 122.400 C 163.382 121.960,163.830 121.599,164.103 121.598 C 164.377 121.597,165.148 121.102,165.819 120.498 C 166.489 119.894,167.377 119.208,167.792 118.973 C 168.207 118.739,168.739 118.207,168.973 117.792 C 169.208 117.377,169.894 116.489,170.498 115.819 C 171.102 115.148,171.597 114.377,171.598 114.103 C 171.599 113.830,171.960 113.382,172.400 113.107 C 172.840 112.832,173.200 112.291,173.200 111.904 C 173.200 111.517,173.380 111.200,173.600 111.200 C 173.820 111.200,173.969 111.065,173.932 110.900 C 173.782 110.244,174.514 106.777,174.846 106.571 C 175.308 106.286,175.308 93.714,174.846 93.429 C 174.514 93.223,173.782 89.756,173.932 89.100 C 173.969 88.935,173.820 88.800,173.600 88.800 C 173.380 88.800,173.200 88.536,173.200 88.214 C 173.200 87.641,172.861 87.187,170.403 84.469 C 169.741 83.737,169.200 82.910,169.200 82.631 C 169.200 82.030,167.923 80.800,167.299 80.800 C 167.059 80.800,166.321 80.305,165.660 79.700 C 162.920 77.192,162.400 76.800,161.814 76.800 C 161.476 76.800,161.200 76.620,161.200 76.400 C 161.200 76.180,161.065 76.031,160.900 76.068 C 160.244 76.218,156.777 75.486,156.571 75.154 C 156.288 74.695,143.600 74.690,143.600 75.148 M93.600 175.148 C 93.600 175.459,89.858 176.218,89.100 176.062 C 88.935 176.028,88.800 176.180,88.800 176.400 C 88.800 176.620,88.522 176.800,88.182 176.800 C 87.842 176.800,87.140 177.205,86.622 177.700 C 85.341 178.925,83.255 180.499,82.247 181.001 C 81.790 181.229,81.229 181.790,81.001 182.247 C 80.499 183.255,78.925 185.341,77.700 186.622 C 77.205 187.140,76.800 187.842,76.800 188.182 C 76.800 188.522,76.620 188.800,76.400 188.800 C 76.180 188.800,76.028 188.935,76.062 189.100 C 76.218 189.858,75.459 193.600,75.148 193.600 C 74.690 193.600,74.695 206.288,75.154 206.571 C 75.486 206.777,76.218 210.244,76.068 210.900 C 76.031 211.065,76.180 211.200,76.400 211.200 C 76.620 211.200,76.800 211.476,76.800 211.814 C 76.800 212.400,77.192 212.920,79.700 215.660 C 80.305 216.321,80.800 217.090,80.800 217.369 C 80.800 217.970,82.077 219.200,82.701 219.200 C 82.941 219.200,83.737 219.741,84.469 220.403 C 87.187 222.861,87.641 223.200,88.214 223.200 C 88.536 223.200,88.800 223.380,88.800 223.600 C 88.800 223.820,88.935 223.969,89.100 223.932 C 89.756 223.782,93.223 224.514,93.429 224.846 C 93.714 225.308,106.286 225.308,106.571 224.846 C 106.777 224.514,110.244 223.782,110.900 223.932 C 111.065 223.969,111.200 223.820,111.200 223.600 C 111.200 223.380,111.517 223.200,111.904 223.200 C 112.291 223.200,112.832 222.840,113.107 222.400 C 113.382 221.960,113.830 221.599,114.103 221.598 C 114.377 221.597,115.148 221.102,115.819 220.498 C 116.489 219.894,117.377 219.208,117.792 218.973 C 118.207 218.739,118.739 218.207,118.973 217.792 C 119.208 217.377,119.894 216.489,120.498 215.819 C 121.102 215.148,121.597 214.377,121.598 214.103 C 121.599 213.830,121.960 213.382,122.400 213.107 C 122.840 212.832,123.200 212.291,123.200 211.904 C 123.200 211.517,123.380 211.200,123.600 211.200 C 123.820 211.200,123.969 211.065,123.932 210.900 C 123.782 210.244,124.514 206.777,124.846 206.571 C 125.308 206.286,125.308 193.714,124.846 193.429 C 124.514 193.223,123.782 189.756,123.932 189.100 C 123.969 188.935,123.820 188.800,123.600 188.800 C 123.380 188.800,123.200 188.536,123.200 188.214 C 123.200 187.641,122.861 187.187,120.403 184.469 C 119.741 183.737,119.200 182.910,119.200 182.631 C 119.200 182.030,117.923 180.800,117.299 180.800 C 117.059 180.800,116.321 180.305,115.660 179.700 C 112.920 177.192,112.400 176.800,111.814 176.800 C 111.476 176.800,111.200 176.620,111.200 176.400 C 111.200 176.180,111.065 176.031,110.900 176.068 C 110.244 176.218,106.777 175.486,106.571 175.154 C 106.288 174.695,93.600 174.690,93.600 175.148 M206.454 200.606 C 201.584 203.177,199.600 206.729,199.600 212.879 C 199.600 215.493,199.758 217.200,200.000 217.200 C 200.220 217.200,200.400 217.476,200.400 217.814 C 200.400 219.533,204.381 223.885,206.280 224.241 C 207.006 224.378,207.600 224.649,207.600 224.845 C 207.600 225.040,209.850 225.200,212.600 225.200 C 215.350 225.200,217.600 225.043,217.600 224.850 C 217.600 224.657,218.124 224.395,218.764 224.267 C 219.422 224.136,220.819 223.143,221.981 221.981 C 223.143 220.819,224.136 219.422,224.267 218.764 C 224.395 218.124,224.657 217.600,224.850 217.600 C 225.043 217.600,225.200 215.350,225.200 212.600 C 225.200 209.850,225.040 207.600,224.845 207.600 C 224.649 207.600,224.378 207.006,224.241 206.280 C 223.885 204.381,219.533 200.400,217.814 200.400 C 217.476 200.400,217.200 200.220,217.200 200.000 C 217.200 199.108,208.346 199.607,206.454 200.606 M306.454 250.606 C 301.584 253.177,299.600 256.729,299.600 262.879 C 299.600 265.493,299.758 267.200,300.000 267.200 C 300.220 267.200,300.400 267.476,300.400 267.814 C 300.400 269.533,304.381 273.885,306.280 274.241 C 307.006 274.378,307.600 274.649,307.600 274.845 C 307.600 275.040,309.850 275.200,312.600 275.200 C 315.350 275.200,317.600 275.043,317.600 274.850 C 317.600 274.657,318.124 274.395,318.764 274.267 C 319.422 274.136,320.819 273.143,321.981 271.981 C 323.143 270.819,324.136 269.422,324.267 268.764 C 324.395 268.124,324.658 267.600,324.850 267.600 C 325.043 267.600,325.200 265.350,325.200 262.600 C 325.200 259.850,325.040 257.600,324.845 257.600 C 324.649 257.600,324.378 257.006,324.241 256.280 C 323.885 254.381,319.533 250.400,317.814 250.400 C 317.476 250.400,317.200 250.220,317.200 250.000 C 317.200 249.108,308.346 249.607,306.454 250.606 M132.800 275.247 C 132.800 275.507,132.384 275.614,131.800 275.502 C 131.250 275.397,130.800 275.466,130.800 275.655 C 130.800 275.845,130.646 276.000,130.457 276.000 C 130.010 276.000,126.000 280.010,126.000 280.457 C 126.000 280.646,125.845 280.800,125.655 280.800 C 125.466 280.800,125.397 281.250,125.502 281.800 C 125.614 282.384,125.507 282.800,125.247 282.800 C 124.943 282.800,124.800 284.333,124.800 287.600 C 124.800 290.240,124.960 292.400,125.155 292.400 C 125.351 292.400,125.626 292.985,125.766 293.700 C 126.105 295.427,128.228 297.644,130.997 299.164 C 133.337 300.448,142.400 301.113,142.400 300.000 C 142.400 299.780,142.760 299.600,143.200 299.600 C 143.640 299.600,144.000 299.420,144.000 299.200 C 144.000 298.980,144.275 298.800,144.611 298.800 C 145.404 298.800,148.800 295.404,148.800 294.611 C 148.800 294.275,148.980 294.000,149.200 294.000 C 149.420 294.000,149.600 293.640,149.600 293.200 C 149.600 292.760,149.780 292.400,150.000 292.400 C 151.113 292.400,150.448 283.337,149.164 280.997 C 147.644 278.228,145.427 276.105,143.700 275.766 C 142.985 275.626,142.400 275.351,142.400 275.155 C 142.400 274.960,140.240 274.800,137.600 274.800 C 134.333 274.800,132.800 274.943,132.800 275.247 M218.400 275.162 C 218.400 275.362,217.526 275.645,216.457 275.792 C 215.388 275.939,213.918 276.451,213.190 276.930 C 212.462 277.408,211.311 278.106,210.633 278.481 C 209.955 278.855,209.563 279.170,209.761 279.181 C 210.335 279.211,208.338 280.800,207.726 280.800 C 207.423 280.800,207.072 281.069,206.946 281.398 C 206.819 281.726,206.555 281.896,206.358 281.774 C 206.161 281.652,206.000 281.890,206.000 282.302 C 206.000 282.713,205.460 283.568,204.800 284.200 C 204.140 284.832,203.600 285.558,203.600 285.813 C 203.600 286.068,203.240 286.602,202.800 287.000 C 202.360 287.398,202.000 287.966,202.000 288.262 C 202.000 288.558,201.859 288.800,201.687 288.800 C 201.515 288.800,201.334 289.295,201.284 289.900 C 201.234 290.505,201.015 291.060,200.797 291.133 C 200.578 291.207,200.400 291.691,200.400 292.210 C 200.400 292.728,200.220 293.264,200.000 293.400 C 199.760 293.548,199.600 296.204,199.600 300.024 C 199.600 304.008,199.750 306.400,200.000 306.400 C 200.220 306.400,200.400 306.925,200.400 307.567 C 200.400 308.208,200.578 308.793,200.797 308.867 C 201.015 308.940,201.234 309.495,201.284 310.100 C 201.334 310.705,201.515 311.200,201.687 311.200 C 201.859 311.200,202.000 311.520,202.000 311.912 C 202.000 312.303,202.360 312.883,202.800 313.200 C 203.240 313.517,203.600 313.973,203.600 314.213 C 203.600 314.454,204.140 315.168,204.800 315.800 C 205.460 316.432,206.000 317.104,206.000 317.292 C 206.000 317.849,207.335 319.081,208.239 319.358 C 208.701 319.500,209.282 320.062,209.531 320.608 C 209.795 321.188,210.319 321.600,210.791 321.600 C 211.236 321.600,211.600 321.747,211.600 321.926 C 211.600 322.534,214.589 323.927,216.500 324.210 C 217.545 324.364,218.400 324.650,218.400 324.845 C 218.400 325.040,221.370 325.200,225.000 325.200 C 228.630 325.200,231.600 325.040,231.600 324.845 C 231.600 324.650,232.453 324.363,233.495 324.207 C 235.734 323.871,237.184 323.174,237.973 322.055 C 238.288 321.608,238.689 321.332,238.865 321.440 C 239.357 321.744,240.800 320.839,240.800 320.225 C 240.800 319.924,241.340 319.490,242.000 319.260 C 242.660 319.030,243.200 318.642,243.200 318.397 C 243.200 318.153,243.380 318.064,243.600 318.200 C 243.820 318.336,244.000 318.165,244.000 317.820 C 244.000 317.475,244.540 316.628,245.200 315.937 C 245.860 315.246,246.400 314.466,246.400 314.203 C 246.400 313.939,246.760 313.398,247.200 313.000 C 247.640 312.602,248.000 312.034,248.000 311.738 C 248.000 311.442,248.180 311.200,248.400 311.200 C 248.620 311.200,248.800 310.660,248.800 310.000 C 248.800 309.340,248.980 308.800,249.200 308.800 C 249.420 308.800,249.600 308.361,249.600 307.824 C 249.600 307.287,249.780 306.736,250.000 306.600 C 250.239 306.452,250.400 303.804,250.400 300.000 C 250.400 296.196,250.239 293.548,250.000 293.400 C 249.780 293.264,249.600 292.713,249.600 292.176 C 249.600 291.639,249.420 291.200,249.200 291.200 C 248.980 291.200,248.800 290.660,248.800 290.000 C 248.800 289.340,248.620 288.800,248.400 288.800 C 248.180 288.800,248.000 288.429,248.000 287.976 C 248.000 287.523,247.820 287.264,247.600 287.400 C 247.380 287.536,247.200 287.367,247.200 287.024 C 247.200 286.681,247.020 286.400,246.800 286.400 C 246.580 286.400,246.400 286.157,246.400 285.859 C 246.400 285.562,245.860 284.754,245.200 284.063 C 244.540 283.372,244.000 282.556,244.000 282.249 C 244.000 281.942,243.376 281.395,242.614 281.034 C 241.852 280.672,240.997 280.048,240.714 279.648 C 240.431 279.247,239.660 278.617,239.000 278.247 C 238.340 277.878,237.260 277.235,236.600 276.818 C 235.940 276.401,234.545 275.933,233.500 275.778 C 232.455 275.624,231.600 275.340,231.600 275.148 C 231.600 274.957,228.630 274.800,225.000 274.800 C 221.322 274.800,218.400 274.960,218.400 275.162 " stroke="none" fill="#ec0474" fill-rule="evenodd"></path><path id="path1" d="M136.400 9.131 C 136.400 9.313,136.940 9.382,137.600 9.285 C 138.260 9.188,138.800 9.040,138.800 8.955 C 138.800 8.870,138.260 8.800,137.600 8.800 C 136.940 8.800,136.400 8.949,136.400 9.131 M131.600 10.731 C 131.600 10.913,132.140 10.982,132.800 10.885 C 133.460 10.788,134.000 10.640,134.000 10.555 C 134.000 10.470,133.460 10.400,132.800 10.400 C 132.140 10.400,131.600 10.549,131.600 10.731 M100.500 25.082 C 100.005 25.178,99.600 25.406,99.600 25.590 C 99.600 26.003,101.130 25.636,101.430 25.152 C 101.549 24.958,101.592 24.825,101.524 24.854 C 101.456 24.884,100.995 24.987,100.500 25.082 M95.260 28.242 C 94.962 28.578,94.799 28.932,94.895 29.029 C 94.992 29.126,95.398 28.844,95.798 28.402 C 96.197 27.961,96.361 27.607,96.162 27.615 C 95.963 27.624,95.557 27.905,95.260 28.242 M132.100 39.476 C 132.485 39.576,133.115 39.576,133.500 39.476 C 133.885 39.375,133.570 39.293,132.800 39.293 C 132.030 39.293,131.715 39.375,132.100 39.476 M106.198 53.202 C 105.158 54.351,105.620 54.480,106.714 53.346 C 107.217 52.826,107.470 52.400,107.276 52.400 C 107.082 52.400,106.597 52.761,106.198 53.202 M102.775 55.429 C 102.211 55.728,101.402 56.383,100.977 56.886 L 100.206 57.800 101.229 56.900 C 101.791 56.405,102.478 56.000,102.754 56.000 C 103.031 56.000,103.527 55.730,103.857 55.400 C 104.578 54.679,104.168 54.690,102.775 55.429 M142.200 75.200 L 141.000 75.505 142.300 75.553 C 143.015 75.579,143.600 75.420,143.600 75.200 C 143.600 74.980,143.555 74.821,143.500 74.847 C 143.445 74.873,142.860 75.032,142.200 75.200 M156.741 75.301 C 156.943 75.503,157.533 75.601,158.054 75.519 C 158.855 75.393,158.798 75.337,157.687 75.152 C 156.893 75.021,156.519 75.079,156.741 75.301 M252.336 86.401 C 252.261 87.721,252.335 88.801,252.500 88.801 C 252.665 88.800,252.800 87.720,252.800 86.400 C 252.800 83.302,252.510 83.302,252.336 86.401 M125.115 92.400 C 125.018 93.060,125.087 93.600,125.269 93.600 C 125.451 93.600,125.600 93.060,125.600 92.400 C 125.600 91.740,125.530 91.200,125.445 91.200 C 125.360 91.200,125.212 91.740,125.115 92.400 M174.400 92.176 C 174.400 92.713,174.547 93.244,174.728 93.355 C 174.908 93.467,174.977 93.027,174.882 92.379 C 174.672 90.949,174.400 90.835,174.400 92.176 M28.060 95.442 C 27.762 95.778,27.599 96.132,27.695 96.229 C 27.792 96.326,28.198 96.044,28.598 95.602 C 28.997 95.161,29.161 94.807,28.962 94.815 C 28.763 94.824,28.357 95.105,28.060 95.442 M25.104 100.588 C 25.001 101.131,25.048 101.494,25.210 101.394 C 25.640 101.128,25.980 99.600,25.609 99.600 C 25.435 99.600,25.208 100.045,25.104 100.588 M56.570 101.300 C 55.161 102.947,54.192 105.065,55.400 103.857 C 55.730 103.527,56.000 103.031,56.000 102.754 C 56.000 102.478,56.391 101.835,56.870 101.326 C 57.348 100.817,57.649 100.400,57.539 100.400 C 57.429 100.400,56.993 100.805,56.570 101.300 M52.998 106.402 C 51.958 107.551,52.420 107.680,53.514 106.546 C 54.017 106.026,54.270 105.600,54.076 105.600 C 53.882 105.600,53.397 105.961,52.998 106.402 M125.152 107.687 C 125.337 108.798,125.393 108.855,125.519 108.054 C 125.601 107.533,125.503 106.943,125.301 106.741 C 125.079 106.519,125.021 106.893,125.152 107.687 M174.554 106.977 C 174.432 107.294,174.403 107.879,174.489 108.277 C 174.587 108.728,174.724 108.512,174.854 107.700 C 175.071 106.338,174.930 105.996,174.554 106.977 M225.334 113.200 C 225.334 114.850,225.405 115.525,225.491 114.700 C 225.578 113.875,225.578 112.525,225.491 111.700 C 225.405 110.875,225.334 111.550,225.334 113.200 M252.493 113.200 C 252.493 113.970,252.575 114.285,252.676 113.900 C 252.776 113.515,252.776 112.885,252.676 112.500 C 252.575 112.115,252.493 112.430,252.493 113.200 M141.200 124.555 C 141.200 124.640,141.730 124.787,142.379 124.882 C 143.027 124.977,143.467 124.908,143.355 124.728 C 143.157 124.407,141.200 124.250,141.200 124.555 M156.645 124.728 C 156.533 124.908,156.973 124.977,157.621 124.882 C 158.270 124.787,158.800 124.640,158.800 124.555 C 158.800 124.250,156.843 124.407,156.645 124.728 M10.400 132.800 C 10.400 133.460,10.470 134.000,10.555 134.000 C 10.640 134.000,10.788 133.460,10.885 132.800 C 10.982 132.140,10.913 131.600,10.731 131.600 C 10.549 131.600,10.400 132.140,10.400 132.800 M39.293 132.800 C 39.293 133.570,39.375 133.885,39.476 133.500 C 39.576 133.115,39.576 132.485,39.476 132.100 C 39.375 131.715,39.293 132.030,39.293 132.800 M8.800 137.600 C 8.800 138.260,8.870 138.800,8.955 138.800 C 9.040 138.800,9.188 138.260,9.285 137.600 C 9.382 136.940,9.313 136.400,9.131 136.400 C 8.949 136.400,8.800 136.940,8.800 137.600 M285.600 147.358 C 285.600 147.445,286.320 147.585,287.200 147.669 C 288.080 147.752,288.800 147.681,288.800 147.511 C 288.800 147.340,288.080 147.200,287.200 147.200 C 286.320 147.200,285.600 147.271,285.600 147.358 M312.900 147.487 C 313.505 147.578,314.495 147.578,315.100 147.487 C 315.705 147.395,315.210 147.320,314.000 147.320 C 312.790 147.320,312.295 147.395,312.900 147.487 M284.000 174.500 C 284.000 174.665,285.305 174.775,286.900 174.746 C 289.954 174.688,289.621 174.509,286.100 174.316 C 284.945 174.252,284.000 174.335,284.000 174.500 M92.200 175.200 L 91.000 175.505 92.300 175.553 C 93.015 175.579,93.600 175.420,93.600 175.200 C 93.600 174.980,93.555 174.821,93.500 174.847 C 93.445 174.873,92.860 175.032,92.200 175.200 M106.741 175.301 C 106.943 175.503,107.533 175.601,108.054 175.519 C 108.855 175.393,108.798 175.337,107.687 175.152 C 106.893 175.021,106.519 175.079,106.741 175.301 M75.115 192.400 C 75.018 193.060,75.087 193.600,75.269 193.600 C 75.451 193.600,75.600 193.060,75.600 192.400 C 75.600 191.740,75.530 191.200,75.445 191.200 C 75.360 191.200,75.212 191.740,75.115 192.400 M124.400 192.176 C 124.400 192.713,124.547 193.244,124.728 193.355 C 124.908 193.467,124.977 193.027,124.882 192.379 C 124.672 190.949,124.400 190.835,124.400 192.176 M75.152 207.687 C 75.337 208.798,75.393 208.855,75.519 208.054 C 75.601 207.533,75.503 206.943,75.301 206.741 C 75.079 206.519,75.021 206.893,75.152 207.687 M124.554 206.977 C 124.432 207.294,124.403 207.879,124.489 208.277 C 124.587 208.728,124.724 208.512,124.854 207.700 C 125.071 206.338,124.930 205.996,124.554 206.977 M221.796 222.004 C 221.166 222.662,220.782 223.200,220.943 223.200 C 221.356 223.200,223.322 221.188,223.113 220.980 C 223.019 220.886,222.426 221.346,221.796 222.004 M91.200 224.555 C 91.200 224.640,91.730 224.787,92.379 224.882 C 93.027 224.977,93.467 224.908,93.355 224.728 C 93.157 224.407,91.200 224.250,91.200 224.555 M106.645 224.728 C 106.533 224.908,106.973 224.977,107.621 224.882 C 108.270 224.787,108.800 224.640,108.800 224.555 C 108.800 224.250,106.843 224.407,106.645 224.728 M363.646 259.267 C 363.621 259.853,363.375 260.424,363.100 260.535 C 362.708 260.693,362.711 260.744,363.113 260.768 C 363.747 260.808,364.130 259.887,363.880 258.923 C 363.754 258.436,363.678 258.548,363.646 259.267 M8.893 262.400 C 8.893 263.170,8.975 263.485,9.076 263.100 C 9.176 262.715,9.176 262.085,9.076 261.700 C 8.975 261.315,8.893 261.630,8.893 262.400 M390.893 262.400 C 390.893 263.170,390.975 263.485,391.076 263.100 C 391.176 262.715,391.176 262.085,391.076 261.700 C 390.975 261.315,390.893 261.630,390.893 262.400 M10.400 267.200 C 10.400 267.860,10.549 268.400,10.731 268.400 C 10.913 268.400,10.982 267.860,10.885 267.200 C 10.788 266.540,10.640 266.000,10.555 266.000 C 10.470 266.000,10.400 266.540,10.400 267.200 M39.293 267.200 C 39.293 267.970,39.375 268.285,39.476 267.900 C 39.576 267.515,39.576 266.885,39.476 266.500 C 39.375 266.115,39.293 266.430,39.293 267.200 M360.493 267.200 C 360.493 267.970,360.575 268.285,360.676 267.900 C 360.776 267.515,360.776 266.885,360.676 266.500 C 360.575 266.115,360.493 266.430,360.493 267.200 M389.293 267.200 C 389.293 267.970,389.375 268.285,389.476 267.900 C 389.576 267.515,389.576 266.885,389.476 266.500 C 389.375 266.115,389.293 266.430,389.293 267.200 M321.796 272.004 C 321.166 272.662,320.782 273.200,320.943 273.200 C 321.356 273.200,323.322 271.188,323.113 270.980 C 323.019 270.886,322.426 271.346,321.796 272.004 M216.000 275.531 C 216.000 275.713,216.540 275.782,217.200 275.685 C 217.860 275.588,218.400 275.440,218.400 275.355 C 218.400 275.270,217.860 275.200,217.200 275.200 C 216.540 275.200,216.000 275.349,216.000 275.531 M232.100 275.476 C 232.485 275.576,233.115 275.576,233.500 275.476 C 233.885 275.375,233.570 275.293,232.800 275.293 C 232.030 275.293,231.715 275.375,232.100 275.476 M127.691 277.860 C 126.751 278.817,126.129 279.600,126.310 279.600 C 126.731 279.600,129.805 276.463,129.574 276.268 C 129.478 276.187,128.631 276.903,127.691 277.860 M211.660 277.442 C 211.362 277.778,211.199 278.132,211.295 278.229 C 211.392 278.326,211.798 278.044,212.198 277.602 C 212.597 277.161,212.761 276.807,212.562 276.815 C 212.363 276.824,211.957 277.105,211.660 277.442 M208.655 279.800 C 208.529 280.130,208.522 280.400,208.641 280.400 C 208.760 280.400,209.127 280.130,209.457 279.800 C 209.978 279.280,209.979 279.200,209.471 279.200 C 209.149 279.200,208.782 279.470,208.655 279.800 M54.800 295.710 C 54.800 296.274,56.136 298.391,56.897 299.032 L 57.800 299.794 56.900 298.771 C 56.405 298.209,56.000 297.522,56.000 297.246 C 56.000 296.969,55.730 296.473,55.400 296.143 C 55.070 295.813,54.800 295.618,54.800 295.710 M344.500 296.223 C 344.225 296.522,344.001 297.089,344.002 297.483 C 344.004 297.979,344.191 297.843,344.610 297.040 C 345.289 295.737,345.246 295.414,344.500 296.223 M27.600 303.767 C 27.600 304.188,28.805 305.328,29.021 305.112 C 29.122 305.011,28.844 304.602,28.402 304.202 C 27.961 303.803,27.600 303.607,27.600 303.767 M371.402 304.398 C 371.003 304.839,370.807 305.200,370.967 305.200 C 371.388 305.200,372.528 303.995,372.312 303.779 C 372.211 303.678,371.802 303.956,371.402 304.398 M332.514 312.242 C 332.027 312.769,331.771 313.200,331.945 313.200 C 332.118 313.200,332.683 312.750,333.200 312.200 C 333.717 311.650,333.973 311.219,333.770 311.242 C 333.566 311.265,333.001 311.715,332.514 312.242 M237.907 322.088 C 237.525 322.560,237.292 323.025,237.388 323.121 C 237.664 323.398,238.879 322.034,238.732 321.611 C 238.659 321.401,238.288 321.616,237.907 322.088 M216.000 324.469 C 216.000 324.651,216.540 324.800,217.200 324.800 C 217.860 324.800,218.400 324.730,218.400 324.645 C 218.400 324.560,217.860 324.412,217.200 324.315 C 216.540 324.218,216.000 324.287,216.000 324.469 M232.600 324.400 L 231.400 324.705 232.700 324.753 C 233.415 324.779,234.000 324.620,234.000 324.400 C 234.000 324.180,233.955 324.021,233.900 324.047 C 233.845 324.073,233.260 324.232,232.600 324.400 M312.074 332.720 C 311.564 333.248,311.218 333.752,311.305 333.839 C 311.392 333.926,311.885 333.548,312.400 333.000 C 312.915 332.452,313.261 331.948,313.168 331.881 C 313.076 331.814,312.583 332.192,312.074 332.720 M296.084 344.615 C 295.434 345.353,295.620 345.350,297.054 344.602 C 297.968 344.126,298.038 344.008,297.400 344.018 C 296.960 344.025,296.368 344.294,296.084 344.615 M132.100 360.676 C 132.485 360.776,133.115 360.776,133.500 360.676 C 133.885 360.575,133.570 360.493,132.800 360.493 C 132.030 360.493,131.715 360.575,132.100 360.676 M266.500 360.676 C 266.885 360.776,267.515 360.776,267.900 360.676 C 268.285 360.575,267.970 360.493,267.200 360.493 C 266.430 360.493,266.115 360.575,266.500 360.676 M260.400 363.133 C 260.400 363.390,259.905 363.625,259.300 363.654 C 258.290 363.704,258.278 363.724,259.146 363.888 C 260.119 364.073,261.160 363.427,260.673 362.940 C 260.523 362.790,260.400 362.877,260.400 363.133 M94.800 370.967 C 94.800 371.388,96.005 372.528,96.221 372.312 C 96.322 372.211,96.044 371.802,95.602 371.402 C 95.161 371.003,94.800 370.807,94.800 370.967 M304.202 371.598 C 303.803 372.039,303.607 372.400,303.767 372.400 C 304.188 372.400,305.328 371.195,305.112 370.979 C 305.011 370.878,304.602 371.156,304.202 371.598 M132.700 389.489 C 133.415 389.578,134.000 389.819,134.000 390.025 C 134.000 390.231,134.202 390.400,134.449 390.400 C 134.759 390.400,134.744 390.215,134.400 389.800 C 134.124 389.467,133.345 389.229,132.651 389.264 L 131.400 389.328 132.700 389.489 M266.500 389.476 C 266.885 389.576,267.515 389.576,267.900 389.476 C 268.285 389.375,267.970 389.293,267.200 389.293 C 266.430 389.293,266.115 389.375,266.500 389.476 M261.700 391.076 C 262.085 391.176,262.715 391.176,263.100 391.076 C 263.485 390.975,263.170 390.893,262.400 390.893 C 261.630 390.893,261.315 390.975,261.700 391.076 " stroke="none" fill="#f00474" fill-rule="evenodd"></path><path id="path2" d="M136.400 9.131 C 136.400 9.313,136.940 9.382,137.600 9.285 C 138.260 9.188,138.800 9.040,138.800 8.955 C 138.800 8.870,138.260 8.800,137.600 8.800 C 136.940 8.800,136.400 8.949,136.400 9.131 M131.600 10.731 C 131.600 10.913,132.140 10.982,132.800 10.885 C 133.460 10.788,134.000 10.640,134.000 10.555 C 134.000 10.470,133.460 10.400,132.800 10.400 C 132.140 10.400,131.600 10.549,131.600 10.731 M100.500 25.082 C 100.005 25.178,99.600 25.406,99.600 25.590 C 99.600 26.003,101.130 25.636,101.430 25.152 C 101.549 24.958,101.592 24.825,101.524 24.854 C 101.456 24.884,100.995 24.987,100.500 25.082 M95.260 28.242 C 94.962 28.578,94.799 28.932,94.895 29.029 C 94.992 29.126,95.398 28.844,95.798 28.402 C 96.197 27.961,96.361 27.607,96.162 27.615 C 95.963 27.624,95.557 27.905,95.260 28.242 M132.100 39.476 C 132.485 39.576,133.115 39.576,133.500 39.476 C 133.885 39.375,133.570 39.293,132.800 39.293 C 132.030 39.293,131.715 39.375,132.100 39.476 M106.198 53.202 C 105.158 54.351,105.620 54.480,106.714 53.346 C 107.217 52.826,107.470 52.400,107.276 52.400 C 107.082 52.400,106.597 52.761,106.198 53.202 M102.775 55.429 C 102.211 55.728,101.402 56.383,100.977 56.886 L 100.206 57.800 101.229 56.900 C 101.791 56.405,102.478 56.000,102.754 56.000 C 103.031 56.000,103.527 55.730,103.857 55.400 C 104.578 54.679,104.168 54.690,102.775 55.429 M142.200 75.200 L 141.000 75.505 142.300 75.553 C 143.015 75.579,143.600 75.420,143.600 75.200 C 143.600 74.980,143.555 74.821,143.500 74.847 C 143.445 74.873,142.860 75.032,142.200 75.200 M156.741 75.301 C 156.943 75.503,157.533 75.601,158.054 75.519 C 158.855 75.393,158.798 75.337,157.687 75.152 C 156.893 75.021,156.519 75.079,156.741 75.301 M252.336 86.401 C 252.261 87.721,252.335 88.801,252.500 88.801 C 252.665 88.800,252.800 87.720,252.800 86.400 C 252.800 83.302,252.510 83.302,252.336 86.401 M125.115 92.400 C 125.018 93.060,125.087 93.600,125.269 93.600 C 125.451 93.600,125.600 93.060,125.600 92.400 C 125.600 91.740,125.530 91.200,125.445 91.200 C 125.360 91.200,125.212 91.740,125.115 92.400 M174.400 92.176 C 174.400 92.713,174.547 93.244,174.728 93.355 C 174.908 93.467,174.977 93.027,174.882 92.379 C 174.672 90.949,174.400 90.835,174.400 92.176 M28.060 95.442 C 27.762 95.778,27.599 96.132,27.695 96.229 C 27.792 96.326,28.198 96.044,28.598 95.602 C 28.997 95.161,29.161 94.807,28.962 94.815 C 28.763 94.824,28.357 95.105,28.060 95.442 M25.104 100.588 C 25.001 101.131,25.048 101.494,25.210 101.394 C 25.640 101.128,25.980 99.600,25.609 99.600 C 25.435 99.600,25.208 100.045,25.104 100.588 M56.570 101.300 C 55.161 102.947,54.192 105.065,55.400 103.857 C 55.730 103.527,56.000 103.031,56.000 102.754 C 56.000 102.478,56.391 101.835,56.870 101.326 C 57.348 100.817,57.649 100.400,57.539 100.400 C 57.429 100.400,56.993 100.805,56.570 101.300 M52.998 106.402 C 51.958 107.551,52.420 107.680,53.514 106.546 C 54.017 106.026,54.270 105.600,54.076 105.600 C 53.882 105.600,53.397 105.961,52.998 106.402 M125.152 107.687 C 125.337 108.798,125.393 108.855,125.519 108.054 C 125.601 107.533,125.503 106.943,125.301 106.741 C 125.079 106.519,125.021 106.893,125.152 107.687 M174.554 106.977 C 174.432 107.294,174.403 107.879,174.489 108.277 C 174.587 108.728,174.724 108.512,174.854 107.700 C 175.071 106.338,174.930 105.996,174.554 106.977 M225.334 113.200 C 225.334 114.850,225.405 115.525,225.491 114.700 C 225.578 113.875,225.578 112.525,225.491 111.700 C 225.405 110.875,225.334 111.550,225.334 113.200 M252.493 113.200 C 252.493 113.970,252.575 114.285,252.676 113.900 C 252.776 113.515,252.776 112.885,252.676 112.500 C 252.575 112.115,252.493 112.430,252.493 113.200 M141.200 124.555 C 141.200 124.640,141.730 124.787,142.379 124.882 C 143.027 124.977,143.467 124.908,143.355 124.728 C 143.157 124.407,141.200 124.250,141.200 124.555 M156.645 124.728 C 156.533 124.908,156.973 124.977,157.621 124.882 C 158.270 124.787,158.800 124.640,158.800 124.555 C 158.800 124.250,156.843 124.407,156.645 124.728 M10.400 132.800 C 10.400 133.460,10.470 134.000,10.555 134.000 C 10.640 134.000,10.788 133.460,10.885 132.800 C 10.982 132.140,10.913 131.600,10.731 131.600 C 10.549 131.600,10.400 132.140,10.400 132.800 M39.293 132.800 C 39.293 133.570,39.375 133.885,39.476 133.500 C 39.576 133.115,39.576 132.485,39.476 132.100 C 39.375 131.715,39.293 132.030,39.293 132.800 M8.800 137.600 C 8.800 138.260,8.870 138.800,8.955 138.800 C 9.040 138.800,9.188 138.260,9.285 137.600 C 9.382 136.940,9.313 136.400,9.131 136.400 C 8.949 136.400,8.800 136.940,8.800 137.600 M285.600 147.358 C 285.600 147.445,286.320 147.585,287.200 147.669 C 288.080 147.752,288.800 147.681,288.800 147.511 C 288.800 147.340,288.080 147.200,287.200 147.200 C 286.320 147.200,285.600 147.271,285.600 147.358 M312.900 147.487 C 313.505 147.578,314.495 147.578,315.100 147.487 C 315.705 147.395,315.210 147.320,314.000 147.320 C 312.790 147.320,312.295 147.395,312.900 147.487 M284.000 174.500 C 284.000 174.665,285.305 174.775,286.900 174.746 C 289.954 174.688,289.621 174.509,286.100 174.316 C 284.945 174.252,284.000 174.335,284.000 174.500 M92.200 175.200 L 91.000 175.505 92.300 175.553 C 93.015 175.579,93.600 175.420,93.600 175.200 C 93.600 174.980,93.555 174.821,93.500 174.847 C 93.445 174.873,92.860 175.032,92.200 175.200 M106.741 175.301 C 106.943 175.503,107.533 175.601,108.054 175.519 C 108.855 175.393,108.798 175.337,107.687 175.152 C 106.893 175.021,106.519 175.079,106.741 175.301 M75.115 192.400 C 75.018 193.060,75.087 193.600,75.269 193.600 C 75.451 193.600,75.600 193.060,75.600 192.400 C 75.600 191.740,75.530 191.200,75.445 191.200 C 75.360 191.200,75.212 191.740,75.115 192.400 M124.400 192.176 C 124.400 192.713,124.547 193.244,124.728 193.355 C 124.908 193.467,124.977 193.027,124.882 192.379 C 124.672 190.949,124.400 190.835,124.400 192.176 M75.152 207.687 C 75.337 208.798,75.393 208.855,75.519 208.054 C 75.601 207.533,75.503 206.943,75.301 206.741 C 75.079 206.519,75.021 206.893,75.152 207.687 M124.554 206.977 C 124.432 207.294,124.403 207.879,124.489 208.277 C 124.587 208.728,124.724 208.512,124.854 207.700 C 125.071 206.338,124.930 205.996,124.554 206.977 M221.796 222.004 C 221.166 222.662,220.782 223.200,220.943 223.200 C 221.356 223.200,223.322 221.188,223.113 220.980 C 223.019 220.886,222.426 221.346,221.796 222.004 M91.200 224.555 C 91.200 224.640,91.730 224.787,92.379 224.882 C 93.027 224.977,93.467 224.908,93.355 224.728 C 93.157 224.407,91.200 224.250,91.200 224.555 M106.645 224.728 C 106.533 224.908,106.973 224.977,107.621 224.882 C 108.270 224.787,108.800 224.640,108.800 224.555 C 108.800 224.250,106.843 224.407,106.645 224.728 M363.646 259.267 C 363.621 259.853,363.375 260.424,363.100 260.535 C 362.708 260.693,362.711 260.744,363.113 260.768 C 363.747 260.808,364.130 259.887,363.880 258.923 C 363.754 258.436,363.678 258.548,363.646 259.267 M8.893 262.400 C 8.893 263.170,8.975 263.485,9.076 263.100 C 9.176 262.715,9.176 262.085,9.076 261.700 C 8.975 261.315,8.893 261.630,8.893 262.400 M390.893 262.400 C 390.893 263.170,390.975 263.485,391.076 263.100 C 391.176 262.715,391.176 262.085,391.076 261.700 C 390.975 261.315,390.893 261.630,390.893 262.400 M10.400 267.200 C 10.400 267.860,10.549 268.400,10.731 268.400 C 10.913 268.400,10.982 267.860,10.885 267.200 C 10.788 266.540,10.640 266.000,10.555 266.000 C 10.470 266.000,10.400 266.540,10.400 267.200 M39.293 267.200 C 39.293 267.970,39.375 268.285,39.476 267.900 C 39.576 267.515,39.576 266.885,39.476 266.500 C 39.375 266.115,39.293 266.430,39.293 267.200 M360.493 267.200 C 360.493 267.970,360.575 268.285,360.676 267.900 C 360.776 267.515,360.776 266.885,360.676 266.500 C 360.575 266.115,360.493 266.430,360.493 267.200 M389.293 267.200 C 389.293 267.970,389.375 268.285,389.476 267.900 C 389.576 267.515,389.576 266.885,389.476 266.500 C 389.375 266.115,389.293 266.430,389.293 267.200 M321.796 272.004 C 321.166 272.662,320.782 273.200,320.943 273.200 C 321.356 273.200,323.322 271.188,323.113 270.980 C 323.019 270.886,322.426 271.346,321.796 272.004 M216.000 275.531 C 216.000 275.713,216.540 275.782,217.200 275.685 C 217.860 275.588,218.400 275.440,218.400 275.355 C 218.400 275.270,217.860 275.200,217.200 275.200 C 216.540 275.200,216.000 275.349,216.000 275.531 M232.100 275.476 C 232.485 275.576,233.115 275.576,233.500 275.476 C 233.885 275.375,233.570 275.293,232.800 275.293 C 232.030 275.293,231.715 275.375,232.100 275.476 M127.691 277.860 C 126.751 278.817,126.129 279.600,126.310 279.600 C 126.731 279.600,129.805 276.463,129.574 276.268 C 129.478 276.187,128.631 276.903,127.691 277.860 M211.660 277.442 C 211.362 277.778,211.199 278.132,211.295 278.229 C 211.392 278.326,211.798 278.044,212.198 277.602 C 212.597 277.161,212.761 276.807,212.562 276.815 C 212.363 276.824,211.957 277.105,211.660 277.442 M208.655 279.800 C 208.529 280.130,208.522 280.400,208.641 280.400 C 208.760 280.400,209.127 280.130,209.457 279.800 C 209.978 279.280,209.979 279.200,209.471 279.200 C 209.149 279.200,208.782 279.470,208.655 279.800 M54.800 295.710 C 54.800 296.274,56.136 298.391,56.897 299.032 L 57.800 299.794 56.900 298.771 C 56.405 298.209,56.000 297.522,56.000 297.246 C 56.000 296.969,55.730 296.473,55.400 296.143 C 55.070 295.813,54.800 295.618,54.800 295.710 M344.500 296.223 C 344.225 296.522,344.001 297.089,344.002 297.483 C 344.004 297.979,344.191 297.843,344.610 297.040 C 345.289 295.737,345.246 295.414,344.500 296.223 M27.600 303.767 C 27.600 304.188,28.805 305.328,29.021 305.112 C 29.122 305.011,28.844 304.602,28.402 304.202 C 27.961 303.803,27.600 303.607,27.600 303.767 M371.402 304.398 C 371.003 304.839,370.807 305.200,370.967 305.200 C 371.388 305.200,372.528 303.995,372.312 303.779 C 372.211 303.678,371.802 303.956,371.402 304.398 M332.514 312.242 C 332.027 312.769,331.771 313.200,331.945 313.200 C 332.118 313.200,332.683 312.750,333.200 312.200 C 333.717 311.650,333.973 311.219,333.770 311.242 C 333.566 311.265,333.001 311.715,332.514 312.242 M237.907 322.088 C 237.525 322.560,237.292 323.025,237.388 323.121 C 237.664 323.398,238.879 322.034,238.732 321.611 C 238.659 321.401,238.288 321.616,237.907 322.088 M216.000 324.469 C 216.000 324.651,216.540 324.800,217.200 324.800 C 217.860 324.800,218.400 324.730,218.400 324.645 C 218.400 324.560,217.860 324.412,217.200 324.315 C 216.540 324.218,216.000 324.287,216.000 324.469 M232.600 324.400 L 231.400 324.705 232.700 324.753 C 233.415 324.779,234.000 324.620,234.000 324.400 C 234.000 324.180,233.955 324.021,233.900 324.047 C 233.845 324.073,233.260 324.232,232.600 324.400 M312.074 332.720 C 311.564 333.248,311.218 333.752,311.305 333.839 C 311.392 333.926,311.885 333.548,312.400 333.000 C 312.915 332.452,313.261 331.948,313.168 331.881 C 313.076 331.814,312.583 332.192,312.074 332.720 M296.084 344.615 C 295.434 345.353,295.620 345.350,297.054 344.602 C 297.968 344.126,298.038 344.008,297.400 344.018 C 296.960 344.025,296.368 344.294,296.084 344.615 M132.100 360.676 C 132.485 360.776,133.115 360.776,133.500 360.676 C 133.885 360.575,133.570 360.493,132.800 360.493 C 132.030 360.493,131.715 360.575,132.100 360.676 M266.500 360.676 C 266.885 360.776,267.515 360.776,267.900 360.676 C 268.285 360.575,267.970 360.493,267.200 360.493 C 266.430 360.493,266.115 360.575,266.500 360.676 M260.400 363.133 C 260.400 363.390,259.905 363.625,259.300 363.654 C 258.290 363.704,258.278 363.724,259.146 363.888 C 260.119 364.073,261.160 363.427,260.673 362.940 C 260.523 362.790,260.400 362.877,260.400 363.133 M94.800 370.967 C 94.800 371.388,96.005 372.528,96.221 372.312 C 96.322 372.211,96.044 371.802,95.602 371.402 C 95.161 371.003,94.800 370.807,94.800 370.967 M304.202 371.598 C 303.803 372.039,303.607 372.400,303.767 372.400 C 304.188 372.400,305.328 371.195,305.112 370.979 C 305.011 370.878,304.602 371.156,304.202 371.598 M132.700 389.489 C 133.415 389.578,134.000 389.819,134.000 390.025 C 134.000 390.231,134.202 390.400,134.449 390.400 C 134.759 390.400,134.744 390.215,134.400 389.800 C 134.124 389.467,133.345 389.229,132.651 389.264 L 131.400 389.328 132.700 389.489 M266.500 389.476 C 266.885 389.576,267.515 389.576,267.900 389.476 C 268.285 389.375,267.970 389.293,267.200 389.293 C 266.430 389.293,266.115 389.375,266.500 389.476 M261.700 391.076 C 262.085 391.176,262.715 391.176,263.100 391.076 C 263.485 390.975,263.170 390.893,262.400 390.893 C 261.630 390.893,261.315 390.975,261.700 391.076 " stroke="none" fill="#f00474" fill-rule="evenodd"></path></g></svg>